<?xml version="1.0" encoding="UTF-8"?>
<!DOCTYPE svg PUBLIC "-//W3C//DTD SVG 1.1//EN" "http://www.w3.org/Graphics/SVG/1.1/DTD/svg11.dtd">
<!-- Creator: CorelDRAW -->
<svg xmlns="http://www.w3.org/2000/svg" xml:space="preserve" width="183px" height="208px" version="1.1" style="shape-rendering:geometricPrecision; text-rendering:geometricPrecision; image-rendering:optimizeQuality; fill-rule:evenodd; clip-rule:evenodd"
viewBox="0 0 183 208.741"
 xmlns:xlink="http://www.w3.org/1999/xlink"
 xmlns:xodm="http://www.corel.com/coreldraw/odm/2003">
 <defs>
  <style type="text/css">
   <![CDATA[
    .fil1 {fill:#ECE9C3;fill-rule:nonzero}
    .fil0 {fill:#7B3B15;fill-rule:nonzero}
   ]]>
  </style>
 </defs>
 <g id="Layer_x0020_1">
  <metadata id="CorelCorpID_0Corel-Layer"/>
  <g id="_105553780787040">
   <path class="fil0" d="M155.318 47.403c-18.136,-4.87 -40.613,-7.91 -64.305,-7.91 -23.089,0 -45.245,2.946 -63.108,7.592l-8.727 -22.355c0.223,-0.072 0.445,-0.144 0.669,-0.215 19.986,-6.401 44.903,-10.199 71.919,-10.199 26.941,0 51.795,3.777 71.752,10.146 0.27,0.086 0.538,0.172 0.807,0.259l-9.007 22.682zm-55.397 -15.448c0.008,-0.303 -0.014,-0.572 -0.066,-0.806 -0.051,-0.232 -0.13,-0.429 -0.238,-0.588 -0.106,-0.16 -0.24,-0.283 -0.4,-0.368 -0.16,-0.086 -0.345,-0.131 -0.55,-0.137 -0.2,-0.006 -0.384,0.03 -0.547,0.105 -0.164,0.076 -0.305,0.191 -0.422,0.343 -0.117,0.155 -0.209,0.346 -0.276,0.576 -0.067,0.231 -0.106,0.498 -0.115,0.8l-0.008 0.283c-0.009,0.303 0.013,0.571 0.068,0.807 0.055,0.235 0.136,0.433 0.246,0.593 0.11,0.161 0.244,0.284 0.406,0.37 0.158,0.085 0.34,0.13 0.54,0.137 0.417,0.011 0.743,-0.138 0.977,-0.449 0.234,-0.312 0.358,-0.773 0.377,-1.383l0.008 -0.283zm6.02 -2.296l-0.183 3.623c-0.016,0.31 -0.083,0.578 -0.201,0.806 -0.117,0.227 -0.271,0.414 -0.461,0.562 -0.192,0.147 -0.412,0.253 -0.662,0.319 -0.249,0.065 -0.514,0.091 -0.795,0.077 -0.289,-0.015 -0.556,-0.068 -0.799,-0.158 -0.243,-0.091 -0.45,-0.219 -0.623,-0.383 -0.174,-0.166 -0.305,-0.368 -0.396,-0.607 -0.089,-0.237 -0.126,-0.511 -0.11,-0.822l0.183 -3.623 0.938 0.049 -0.183 3.622c-0.011,0.193 0.007,0.361 0.049,0.504 0.045,0.143 0.111,0.262 0.2,0.359 0.09,0.096 0.201,0.169 0.333,0.22 0.131,0.05 0.28,0.079 0.446,0.088 0.167,0.008 0.319,-0.006 0.456,-0.042 0.137,-0.037 0.254,-0.099 0.353,-0.186 0.097,-0.087 0.174,-0.199 0.233,-0.336 0.057,-0.138 0.091,-0.303 0.101,-0.498l0.183 -3.621 0.938 0.047zm1.659 -10.606l1.664 5.813 2.354 -5.565 2.124 0.13 -0.485 7.845 -1.621 -0.1 0.132 -2.145 0.39 -3.691 -2.477 5.715 -1.11 -0.069 -1.752 -5.97 -0.066 3.705 -0.133 2.145 -1.615 -0.101 0.483 -7.843 2.112 0.131zm-29.548 13.566l0.091 1.692 1.046 -0.056c0.153,-0.009 0.288,-0.037 0.404,-0.083 0.116,-0.045 0.21,-0.107 0.286,-0.184 0.075,-0.078 0.13,-0.168 0.165,-0.272 0.034,-0.104 0.047,-0.218 0.041,-0.342 -0.015,-0.267 -0.097,-0.474 -0.247,-0.62 -0.149,-0.146 -0.382,-0.211 -0.7,-0.194l-1.086 0.059zm-0.037 -0.691l0.922 -0.051c0.292,-0.015 0.518,-0.094 0.675,-0.236 0.158,-0.141 0.23,-0.334 0.217,-0.576 -0.015,-0.268 -0.101,-0.457 -0.261,-0.569 -0.158,-0.11 -0.399,-0.156 -0.721,-0.138l-0.915 0.048 0.083 1.522zm-0.772 3.185l-0.292 -5.414 1.855 -0.101c0.293,-0.015 0.557,0 0.793,0.045 0.235,0.045 0.438,0.123 0.606,0.234 0.168,0.111 0.3,0.256 0.394,0.435 0.096,0.18 0.151,0.396 0.164,0.649 0.013,0.249 -0.042,0.476 -0.164,0.682 -0.124,0.205 -0.311,0.369 -0.563,0.492 0.158,0.034 0.297,0.088 0.417,0.162 0.12,0.074 0.221,0.164 0.302,0.269 0.081,0.105 0.144,0.222 0.189,0.351 0.044,0.13 0.07,0.265 0.078,0.406 0.013,0.261 -0.016,0.492 -0.092,0.693 -0.075,0.201 -0.189,0.373 -0.345,0.515 -0.155,0.142 -0.346,0.252 -0.575,0.331 -0.228,0.081 -0.488,0.127 -0.781,0.144l-1.986 0.107zm-38.172 -6.441l1.926 -0.388 -1.548 -2.69 -0.378 3.078zm2.613 0.813l-2.783 0.559 -0.21 1.694 -1.689 0.339 1.32 -8.281 1.471 -0.296 4.434 7.126 -1.689 0.338 -0.854 -1.479zm25.36 6.506l-0.933 0.104 -0.599 -5.389 0.932 -0.105 0.6 5.39zm59.933 1.414l-0.927 -0.147 0.851 -5.355 0.928 0.147 -0.852 5.355zm-13.583 -6.414l-0.378 3.893 0.612 0.059c0.255,0.025 0.483,0.005 0.683,-0.059 0.201,-0.064 0.372,-0.167 0.514,-0.312 0.142,-0.143 0.256,-0.323 0.343,-0.542 0.086,-0.218 0.143,-0.469 0.17,-0.751l0.027 -0.274c0.056,-0.585 -0.027,-1.045 -0.252,-1.379 -0.225,-0.333 -0.579,-0.524 -1.063,-0.57l-0.656 -0.065zm-1.388 4.55l0.523 -5.397 1.594 0.155c0.362,0.035 0.685,0.128 0.97,0.277 0.286,0.151 0.526,0.348 0.717,0.592 0.194,0.246 0.333,0.531 0.421,0.858 0.088,0.329 0.113,0.688 0.075,1.077l-0.027 0.267c-0.037,0.391 -0.13,0.738 -0.278,1.043 -0.148,0.303 -0.341,0.556 -0.578,0.756 -0.239,0.202 -0.516,0.349 -0.833,0.44 -0.317,0.091 -0.662,0.118 -1.034,0.083l-1.55 -0.151zm19.447 -6.194l-1.602 -0.234 1.134 -7.777 1.602 0.233 -1.134 7.778zm-20.528 6.101l-0.939 -0.069 -2.128 -4.014 -0.281 3.836 -0.941 -0.068 0.397 -5.408 0.94 0.069 2.135 4.029 0.283 -3.852 0.932 0.069 -0.398 5.408zm-15.474 -3.051l-2.183 -0.019 -0.02 2.298 -0.942 -0.008 0.047 -5.423 3.445 0.031 -0.007 0.76 -2.503 -0.022 -0.012 1.612 2.18 0.019 -0.005 0.752zm-41.134 -5.339l0.954 -6.099 1.786 -0.247 -1.632 8.16 -1.674 0.231 -3.779 -7.41 1.78 -0.246 2.565 5.611zm-4.469 9.739c0.031,0.265 0.019,0.518 -0.032,0.759 -0.051,0.24 -0.146,0.458 -0.285,0.654 -0.14,0.197 -0.324,0.365 -0.555,0.508 -0.23,0.141 -0.508,0.247 -0.833,0.315 -0.325,0.068 -0.632,0.071 -0.921,0.007 -0.287,-0.061 -0.548,-0.183 -0.778,-0.361 -0.232,-0.179 -0.431,-0.412 -0.594,-0.7 -0.164,-0.288 -0.287,-0.624 -0.367,-1.008l-0.09 -0.429c-0.081,-0.382 -0.101,-0.738 -0.063,-1.07 0.036,-0.331 0.127,-0.626 0.271,-0.884 0.144,-0.258 0.337,-0.475 0.581,-0.65 0.243,-0.175 0.532,-0.297 0.865,-0.368 0.315,-0.065 0.605,-0.078 0.866,-0.038 0.263,0.041 0.496,0.123 0.698,0.25 0.203,0.126 0.375,0.291 0.518,0.495 0.143,0.203 0.255,0.435 0.338,0.694l-0.919 0.191c-0.055,-0.164 -0.12,-0.307 -0.195,-0.431 -0.075,-0.123 -0.166,-0.222 -0.274,-0.298 -0.107,-0.075 -0.232,-0.124 -0.376,-0.145 -0.144,-0.02 -0.311,-0.01 -0.5,0.03 -0.208,0.043 -0.384,0.121 -0.524,0.233 -0.14,0.112 -0.247,0.253 -0.321,0.425 -0.072,0.171 -0.112,0.37 -0.118,0.6 -0.007,0.231 0.019,0.485 0.076,0.764l0.092 0.438c0.057,0.264 0.129,0.5 0.221,0.707 0.091,0.206 0.201,0.377 0.331,0.511 0.129,0.135 0.28,0.228 0.451,0.28 0.17,0.054 0.362,0.057 0.577,0.013 0.199,-0.041 0.362,-0.1 0.49,-0.175 0.127,-0.075 0.227,-0.166 0.298,-0.275 0.071,-0.108 0.119,-0.234 0.141,-0.375 0.022,-0.142 0.026,-0.3 0.012,-0.475l0.919 -0.192zm39.395 -4.537l-2.228 0.038 0.029 1.668 2.603 -0.044 0.013 0.753 -3.546 0.06 -0.091 -5.423 3.518 -0.059 0.013 0.76 -2.576 0.043 0.025 1.497 2.227 -0.037 0.013 0.744zm53.428 -5.232l1.28 0.258c0.209,0.042 0.396,0.051 0.565,0.028 0.168,-0.023 0.314,-0.075 0.439,-0.154 0.123,-0.079 0.226,-0.183 0.307,-0.312 0.081,-0.128 0.139,-0.28 0.174,-0.453 0.073,-0.363 0.028,-0.669 -0.137,-0.919 -0.164,-0.249 -0.46,-0.417 -0.887,-0.503l-1.276 -0.258 -0.465 2.313zm1.005 1.541l-1.265 -0.256 -0.568 2.82 -1.588 -0.319 1.555 -7.705 2.861 0.578c0.445,0.09 0.833,0.22 1.167,0.392 0.331,0.171 0.599,0.379 0.804,0.624 0.204,0.245 0.342,0.525 0.413,0.842 0.072,0.315 0.071,0.664 -0.007,1.044 -0.056,0.282 -0.14,0.529 -0.247,0.74 -0.11,0.211 -0.241,0.392 -0.396,0.543 -0.155,0.149 -0.332,0.273 -0.526,0.37 -0.196,0.095 -0.409,0.17 -0.64,0.223l1.032 3.484 -0.015 0.074 -1.704 -0.343 -0.876 -3.111zm-11.747 6.796c0.053,-0.298 0.071,-0.566 0.055,-0.805 -0.015,-0.239 -0.066,-0.446 -0.148,-0.618 -0.083,-0.175 -0.197,-0.316 -0.343,-0.424 -0.145,-0.108 -0.321,-0.18 -0.524,-0.216 -0.198,-0.035 -0.382,-0.027 -0.555,0.024 -0.173,0.05 -0.33,0.143 -0.468,0.278 -0.139,0.134 -0.258,0.31 -0.36,0.528 -0.1,0.217 -0.177,0.475 -0.23,0.774l-0.049 0.278c-0.055,0.298 -0.072,0.568 -0.053,0.808 0.019,0.24 0.072,0.449 0.156,0.624 0.084,0.175 0.198,0.316 0.347,0.424 0.145,0.108 0.316,0.181 0.514,0.216 0.411,0.074 0.755,-0.027 1.032,-0.301 0.278,-0.273 0.469,-0.71 0.577,-1.311l0.049 -0.279zm0.878 0.444c-0.072,0.406 -0.191,0.761 -0.354,1.062 -0.164,0.303 -0.363,0.549 -0.595,0.738 -0.233,0.189 -0.496,0.319 -0.788,0.39 -0.293,0.072 -0.606,0.079 -0.934,0.019 -0.328,-0.059 -0.617,-0.172 -0.867,-0.34 -0.25,-0.167 -0.453,-0.381 -0.61,-0.641 -0.157,-0.258 -0.261,-0.558 -0.311,-0.898 -0.052,-0.341 -0.042,-0.715 0.031,-1.121l0.048 -0.271c0.072,-0.405 0.192,-0.76 0.358,-1.063 0.166,-0.303 0.367,-0.55 0.601,-0.74 0.236,-0.19 0.499,-0.321 0.791,-0.393 0.293,-0.071 0.602,-0.077 0.93,-0.019 0.33,0.059 0.621,0.173 0.872,0.341 0.25,0.168 0.454,0.383 0.608,0.643 0.154,0.259 0.255,0.559 0.304,0.902 0.049,0.341 0.038,0.714 -0.036,1.12l-0.048 0.271zm-61.938 -15.116l0.359 5.234 0.781 -0.053c0.638,-0.043 1.11,-0.287 1.416,-0.731 0.305,-0.446 0.43,-1.06 0.376,-1.841l-0.024 -0.367c-0.055,-0.798 -0.262,-1.389 -0.62,-1.779 -0.358,-0.388 -0.856,-0.561 -1.49,-0.517l-0.798 0.054zm-1.169 6.644l-0.535 -7.842 2.413 -0.164c0.526,-0.037 1.018,0.022 1.469,0.171 0.452,0.152 0.846,0.381 1.183,0.687 0.337,0.308 0.609,0.685 0.816,1.133 0.207,0.447 0.33,0.951 0.368,1.512l0.025 0.355c0.038,0.559 -0.015,1.075 -0.157,1.545 -0.142,0.469 -0.362,0.878 -0.658,1.229 -0.295,0.35 -0.658,0.631 -1.086,0.841 -0.429,0.209 -0.91,0.331 -1.441,0.367l-2.397 0.166zm-9.15 0.897l-1.608 0.189 -0.918 -7.805 1.608 -0.189 0.918 7.805zm56.443 -3.558l1.956 0.183 -0.709 -3.021 -1.247 2.838zm2.269 1.53l-2.827 -0.266 -0.689 1.563 -1.713 -0.162 3.646 -7.551 1.493 0.141 2.195 8.099 -1.713 -0.161 -0.392 -1.663zm9.127 2.685l-1.606 -0.198 -2.497 -5.519 -0.632 5.132 -1.608 -0.198 0.963 -7.8 1.607 0.199 2.499 5.53 0.635 -5.143 1.602 0.198 -0.963 7.799zm-27.593 -2.26l-1.618 -0.048 0.226 -7.854 1.618 0.046 -0.226 7.856zm-45.571 10.981l-0.923 0.166 -0.427 -2.371 -2.386 0.429 0.427 2.371 -0.927 0.167 -0.961 -5.336 0.928 -0.167 0.399 2.221 2.385 -0.429 -0.399 -2.222 0.924 -0.166 0.96 5.337zm16.312 -6.754l-1.683 0.161 0.444 4.642 -0.93 0.089 -0.444 -4.641 -1.668 0.16 -0.074 -0.757 4.282 -0.409 0.073 0.755zm46.758 3.301l1.561 0.188 -0.512 -2.327 -1.049 2.139zm1.732 0.974l-2.085 -0.251 -0.587 1.201 -0.973 -0.117 2.681 -5.139 0.84 0.102 1.389 5.627 -0.976 -0.117 -0.289 -1.306zm-29.795 -8.658l-1.619 0.026 -0.056 -3.367 -3.157 0.053 0.056 3.367 -1.619 0.027 -0.13 -7.858 1.619 -0.028 0.052 3.185 3.158 -0.051 -0.053 -3.185 1.619 -0.026 0.13 7.857zm-28.289 7.263l0.961 -0.123c0.167,-0.022 0.311,-0.062 0.431,-0.123 0.12,-0.06 0.216,-0.135 0.29,-0.224 0.073,-0.089 0.125,-0.191 0.153,-0.305 0.027,-0.114 0.033,-0.236 0.016,-0.367 -0.016,-0.137 -0.053,-0.26 -0.106,-0.368 -0.054,-0.106 -0.127,-0.194 -0.218,-0.264 -0.092,-0.069 -0.204,-0.118 -0.336,-0.144 -0.132,-0.028 -0.287,-0.03 -0.464,-0.007l-0.957 0.122 0.23 1.803zm1.137 0.617l-1.041 0.133 0.264 2.072 -0.935 0.119 -0.686 -5.379 1.891 -0.241c0.308,-0.039 0.587,-0.039 0.838,0.001 0.25,0.039 0.467,0.116 0.651,0.232 0.183,0.116 0.331,0.268 0.444,0.459 0.11,0.191 0.184,0.42 0.218,0.686 0.046,0.36 -0.002,0.672 -0.146,0.936 -0.142,0.265 -0.36,0.482 -0.654,0.653l1.494 2.087 0.007 0.048 -1.001 0.128 -1.344 -1.934zm19.85 -0.271l2.46 -0.086 0.027 0.752 -3.403 0.118 -0.188 -5.419 0.941 -0.032 0.163 4.667zm-14.582 -6.641l-1.611 0.154 -3.635 -4.845 0.497 5.149 -1.612 0.154 -0.753 -7.823 1.611 -0.154 3.64 4.854 -0.497 -5.157 1.606 -0.155 0.754 7.823zm25.418 -3.88l1.964 0.021 -0.957 -2.951 -1.007 2.93zm2.388 1.338l-2.84 -0.03 -0.555 1.614 -1.722 -0.019 3.007 -7.828 1.499 0.016 2.861 7.889 -1.721 -0.018 -0.529 -1.624zm-38.891 10.342l1.553 -0.235 -1.114 -2.107 -0.439 2.342zm1.929 0.475l-2.077 0.317 -0.244 1.313 -0.969 0.148 1.21 -5.669 0.836 -0.127 2.844 5.052 -0.973 0.148 -0.627 -1.182zm14.064 -2.344l1.568 -0.119 -0.954 -2.183 -0.614 2.302zm1.889 0.619l-2.095 0.159 -0.342 1.292 -0.976 0.074 1.631 -5.562 0.843 -0.064 2.457 5.252 -0.981 0.075 -0.537 -1.226zm3.155 -10.614l0.091 2.12 1.386 -0.06c0.21,-0.009 0.388,-0.043 0.536,-0.102 0.149,-0.058 0.272,-0.135 0.369,-0.23 0.097,-0.096 0.167,-0.208 0.21,-0.335 0.043,-0.125 0.062,-0.262 0.056,-0.409 -0.008,-0.17 -0.036,-0.32 -0.084,-0.453 -0.05,-0.133 -0.122,-0.245 -0.217,-0.336 -0.097,-0.091 -0.219,-0.16 -0.369,-0.205 -0.15,-0.044 -0.327,-0.06 -0.531,-0.052l-1.447 0.062zm-0.048 -1.143l1.197 -0.052c0.414,-0.024 0.718,-0.125 0.912,-0.3 0.194,-0.176 0.285,-0.418 0.271,-0.728 -0.015,-0.355 -0.129,-0.608 -0.343,-0.755 -0.212,-0.148 -0.542,-0.212 -0.989,-0.193l-1.132 0.048 0.084 1.98zm-1.422 4.631l-0.335 -7.853 2.75 -0.116c0.456,-0.02 0.866,0.005 1.23,0.076 0.363,0.072 0.672,0.191 0.93,0.359 0.258,0.166 0.458,0.382 0.601,0.645 0.142,0.265 0.221,0.58 0.237,0.948 0.008,0.178 -0.008,0.353 -0.046,0.52 -0.037,0.167 -0.098,0.325 -0.185,0.473 -0.085,0.147 -0.195,0.283 -0.33,0.405 -0.135,0.122 -0.299,0.227 -0.49,0.31 0.233,0.048 0.432,0.127 0.601,0.237 0.17,0.11 0.31,0.239 0.422,0.39 0.114,0.149 0.198,0.315 0.254,0.493 0.057,0.18 0.088,0.365 0.096,0.555 0.033,0.762 -0.188,1.349 -0.661,1.759 -0.474,0.407 -1.166,0.631 -2.071,0.671l-3.003 0.128zm-31.013 -0.754l1.288 -0.217c0.21,-0.035 0.389,-0.094 0.536,-0.175 0.15,-0.081 0.268,-0.182 0.356,-0.3 0.087,-0.12 0.146,-0.253 0.176,-0.402 0.03,-0.15 0.03,-0.312 0,-0.485 -0.06,-0.365 -0.214,-0.636 -0.456,-0.81 -0.243,-0.174 -0.579,-0.225 -1.008,-0.153l-1.282 0.216 0.39 2.326zm1.489 1.079l-1.272 0.215 0.478 2.837 -1.597 0.268 -1.303 -7.751 2.88 -0.484c0.446,-0.075 0.856,-0.092 1.227,-0.051 0.373,0.043 0.697,0.14 0.975,0.297 0.278,0.155 0.507,0.367 0.687,0.637 0.182,0.268 0.303,0.595 0.367,0.978 0.048,0.284 0.059,0.544 0.034,0.779 -0.026,0.237 -0.084,0.453 -0.176,0.649 -0.091,0.195 -0.211,0.374 -0.36,0.533 -0.148,0.161 -0.32,0.306 -0.517,0.438l2.209 2.886 0.013 0.073 -1.714 0.288 -1.931 -2.592zm90.125 12.192l-0.923 -0.192 -1.582 -4.26 -0.783 3.767 -0.923 -0.192 1.106 -5.309 0.922 0.193 1.586 4.275 0.787 -3.781 0.915 0.191 -1.105 5.308zm-1.952 -12.373l1.938 0.327 -0.484 -3.065 -1.454 2.738zm2.15 1.692l-2.799 -0.472 -0.802 1.508 -1.697 -0.287 4.192 -7.262 1.48 0.25 1.592 8.239 -1.698 -0.288 -0.268 -1.688zm-11.676 3.81l-1.674 -0.237 -0.654 4.617 -0.926 -0.132 0.655 -4.616 -1.659 -0.236 0.106 -0.751 4.259 0.603 -0.107 0.752zm-25.098 -0.248c-0.013,0.412 -0.077,0.78 -0.195,1.103 -0.117,0.323 -0.277,0.595 -0.479,0.817 -0.202,0.221 -0.444,0.389 -0.723,0.502 -0.278,0.114 -0.586,0.166 -0.921,0.156 -0.332,-0.009 -0.634,-0.079 -0.907,-0.208 -0.271,-0.129 -0.504,-0.31 -0.697,-0.543 -0.194,-0.233 -0.341,-0.514 -0.441,-0.844 -0.103,-0.329 -0.146,-0.7 -0.134,-1.112l0.007 -0.276c0.012,-0.412 0.078,-0.78 0.197,-1.104 0.12,-0.325 0.283,-0.598 0.487,-0.82 0.202,-0.224 0.445,-0.392 0.723,-0.506 0.279,-0.113 0.585,-0.165 0.917,-0.155 0.336,0.009 0.64,0.079 0.913,0.208 0.272,0.13 0.505,0.311 0.696,0.545 0.191,0.234 0.335,0.516 0.434,0.847 0.098,0.331 0.141,0.703 0.13,1.115l-0.007 0.275zm-100.855 19.508l21.981 -12.687 5.229 11.385 27.209 -6.169c0,0 -33.292,11.7 -44.603,22.76l2.562 -13.988 -12.378 -1.301zm128.259 -7.553l27.637 6.414 5.336 -11.547 21.768 12.523 -12.059 1.953 2.562 14.475c0,0 -12.806,-15.928 -45.244,-23.818z"/>
   <path class="fil1" d="M99.921 31.955c0.008,-0.303 -0.014,-0.572 -0.066,-0.806 -0.051,-0.232 -0.13,-0.429 -0.238,-0.588 -0.106,-0.16 -0.24,-0.283 -0.4,-0.368 -0.16,-0.086 -0.345,-0.131 -0.55,-0.137 -0.2,-0.006 -0.384,0.03 -0.547,0.105 -0.164,0.076 -0.305,0.191 -0.422,0.343 -0.117,0.155 -0.209,0.346 -0.276,0.576 -0.067,0.231 -0.106,0.498 -0.115,0.8l-0.008 0.283c-0.009,0.303 0.013,0.571 0.068,0.807 0.055,0.235 0.136,0.433 0.246,0.593 0.11,0.161 0.244,0.284 0.406,0.37 0.158,0.085 0.34,0.13 0.54,0.137 0.417,0.011 0.743,-0.138 0.977,-0.449 0.234,-0.312 0.358,-0.773 0.377,-1.383l0.008 -0.283zm6.02 -2.296l-0.183 3.623c-0.016,0.31 -0.083,0.578 -0.201,0.806 -0.117,0.227 -0.271,0.414 -0.461,0.562 -0.192,0.147 -0.412,0.253 -0.662,0.319 -0.249,0.065 -0.514,0.091 -0.795,0.077 -0.289,-0.015 -0.556,-0.068 -0.799,-0.158 -0.243,-0.091 -0.45,-0.219 -0.623,-0.383 -0.174,-0.166 -0.305,-0.368 -0.396,-0.607 -0.089,-0.237 -0.126,-0.511 -0.11,-0.822l0.183 -3.623 0.938 0.049 -0.183 3.622c-0.011,0.193 0.007,0.361 0.049,0.504 0.045,0.143 0.111,0.262 0.2,0.359 0.09,0.096 0.201,0.169 0.333,0.22 0.131,0.05 0.28,0.079 0.446,0.088 0.167,0.008 0.319,-0.006 0.456,-0.042 0.137,-0.037 0.254,-0.099 0.353,-0.186 0.097,-0.087 0.174,-0.199 0.233,-0.336 0.057,-0.138 0.091,-0.303 0.101,-0.498l0.183 -3.621 0.938 0.047zm1.659 -10.606l1.664 5.813 2.354 -5.565 2.124 0.13 -0.485 7.845 -1.621 -0.1 0.132 -2.145 0.39 -3.691 -2.477 5.715 -1.11 -0.069 -1.752 -5.97 -0.066 3.705 -0.133 2.145 -1.615 -0.101 0.483 -7.843 2.112 0.131zm-29.548 13.566l0.091 1.692 1.046 -0.056c0.153,-0.009 0.288,-0.037 0.404,-0.083 0.116,-0.045 0.21,-0.107 0.286,-0.184 0.075,-0.078 0.13,-0.168 0.165,-0.272 0.034,-0.104 0.047,-0.218 0.041,-0.342 -0.015,-0.267 -0.097,-0.474 -0.247,-0.62 -0.149,-0.146 -0.382,-0.211 -0.7,-0.194l-1.086 0.059zm-0.037 -0.691l0.922 -0.051c0.292,-0.015 0.518,-0.094 0.675,-0.236 0.158,-0.141 0.23,-0.334 0.217,-0.576 -0.015,-0.268 -0.101,-0.457 -0.261,-0.569 -0.158,-0.11 -0.399,-0.156 -0.721,-0.138l-0.915 0.048 0.083 1.522zm-0.772 3.185l-0.292 -5.414 1.855 -0.101c0.293,-0.015 0.557,0 0.793,0.045 0.235,0.045 0.438,0.123 0.606,0.234 0.168,0.111 0.3,0.256 0.394,0.435 0.096,0.18 0.151,0.396 0.164,0.649 0.013,0.249 -0.042,0.476 -0.164,0.682 -0.124,0.205 -0.311,0.369 -0.563,0.492 0.158,0.034 0.297,0.088 0.417,0.162 0.12,0.074 0.221,0.164 0.302,0.269 0.081,0.105 0.144,0.222 0.189,0.351 0.044,0.13 0.07,0.265 0.078,0.406 0.013,0.261 -0.016,0.492 -0.092,0.693 -0.075,0.201 -0.189,0.373 -0.345,0.515 -0.155,0.142 -0.346,0.252 -0.575,0.331 -0.228,0.081 -0.488,0.127 -0.781,0.144l-1.986 0.107zm-38.172 -6.441l1.926 -0.388 -1.548 -2.69 -0.378 3.078zm2.613 0.813l-2.783 0.559 -0.21 1.694 -1.689 0.339 1.32 -8.281 1.471 -0.296 4.434 7.126 -1.689 0.338 -0.854 -1.479zm25.36 6.506l-0.933 0.104 -0.599 -5.389 0.932 -0.105 0.6 5.39zm59.933 1.414l-0.927 -0.147 0.851 -5.355 0.928 0.147 -0.852 5.355zm-13.583 -6.414l-0.378 3.893 0.612 0.059c0.255,0.025 0.483,0.005 0.683,-0.059 0.201,-0.064 0.372,-0.167 0.514,-0.312 0.142,-0.143 0.256,-0.323 0.343,-0.542 0.086,-0.218 0.143,-0.469 0.17,-0.751l0.027 -0.274c0.056,-0.585 -0.027,-1.045 -0.252,-1.379 -0.225,-0.333 -0.579,-0.524 -1.063,-0.57l-0.656 -0.065zm-1.388 4.55l0.523 -5.397 1.594 0.155c0.362,0.035 0.685,0.128 0.97,0.277 0.286,0.151 0.526,0.348 0.717,0.592 0.194,0.246 0.333,0.531 0.421,0.858 0.088,0.329 0.113,0.688 0.075,1.077l-0.027 0.267c-0.037,0.391 -0.13,0.738 -0.278,1.043 -0.148,0.303 -0.341,0.556 -0.578,0.756 -0.239,0.202 -0.516,0.349 -0.833,0.44 -0.317,0.091 -0.662,0.118 -1.034,0.083l-1.55 -0.151zm19.447 -6.194l-1.602 -0.234 1.134 -7.777 1.602 0.233 -1.134 7.778zm-20.528 6.101l-0.939 -0.069 -2.128 -4.014 -0.281 3.836 -0.941 -0.068 0.397 -5.408 0.94 0.069 2.135 4.029 0.283 -3.852 0.932 0.069 -0.398 5.408zm-15.474 -3.051l-2.183 -0.019 -0.02 2.298 -0.942 -0.008 0.047 -5.423 3.445 0.031 -0.007 0.76 -2.503 -0.022 -0.012 1.612 2.18 0.019 -0.005 0.752zm-41.134 -5.339l0.954 -6.099 1.786 -0.247 -1.632 8.16 -1.674 0.231 -3.779 -7.41 1.78 -0.246 2.565 5.611zm-4.469 9.739c0.031,0.265 0.019,0.518 -0.032,0.759 -0.051,0.24 -0.146,0.458 -0.285,0.654 -0.14,0.197 -0.324,0.365 -0.555,0.508 -0.23,0.141 -0.508,0.247 -0.833,0.315 -0.325,0.068 -0.632,0.071 -0.921,0.007 -0.287,-0.061 -0.548,-0.183 -0.778,-0.361 -0.232,-0.179 -0.431,-0.412 -0.594,-0.7 -0.164,-0.288 -0.287,-0.624 -0.367,-1.008l-0.09 -0.429c-0.081,-0.382 -0.101,-0.738 -0.063,-1.07 0.036,-0.331 0.127,-0.626 0.271,-0.884 0.144,-0.258 0.337,-0.475 0.581,-0.65 0.243,-0.175 0.532,-0.297 0.865,-0.368 0.315,-0.065 0.605,-0.078 0.866,-0.038 0.263,0.041 0.496,0.123 0.698,0.25 0.203,0.126 0.375,0.291 0.518,0.495 0.143,0.203 0.255,0.435 0.338,0.694l-0.919 0.191c-0.055,-0.164 -0.12,-0.307 -0.195,-0.431 -0.075,-0.123 -0.166,-0.222 -0.274,-0.298 -0.107,-0.075 -0.232,-0.124 -0.376,-0.145 -0.144,-0.02 -0.311,-0.01 -0.5,0.03 -0.208,0.043 -0.384,0.121 -0.524,0.233 -0.14,0.112 -0.247,0.253 -0.321,0.425 -0.072,0.171 -0.112,0.37 -0.118,0.6 -0.007,0.231 0.019,0.485 0.076,0.764l0.092 0.438c0.057,0.264 0.129,0.5 0.221,0.707 0.091,0.206 0.201,0.377 0.331,0.511 0.129,0.135 0.28,0.228 0.451,0.28 0.17,0.054 0.362,0.057 0.577,0.013 0.199,-0.041 0.362,-0.1 0.49,-0.175 0.127,-0.075 0.227,-0.166 0.298,-0.275 0.071,-0.108 0.119,-0.234 0.141,-0.375 0.022,-0.142 0.026,-0.3 0.012,-0.475l0.919 -0.192zm39.395 -4.537l-2.228 0.038 0.029 1.668 2.603 -0.044 0.013 0.753 -3.546 0.06 -0.091 -5.423 3.518 -0.059 0.013 0.76 -2.576 0.043 0.025 1.497 2.227 -0.037 0.013 0.744zm53.428 -5.232l1.28 0.258c0.209,0.042 0.396,0.051 0.565,0.028 0.168,-0.023 0.314,-0.075 0.439,-0.154 0.123,-0.079 0.226,-0.183 0.307,-0.312 0.081,-0.128 0.139,-0.28 0.174,-0.453 0.073,-0.363 0.028,-0.669 -0.137,-0.919 -0.164,-0.249 -0.46,-0.417 -0.887,-0.503l-1.276 -0.258 -0.465 2.313zm1.005 1.541l-1.265 -0.256 -0.568 2.82 -1.588 -0.319 1.555 -7.705 2.861 0.578c0.445,0.09 0.833,0.22 1.167,0.392 0.331,0.171 0.599,0.379 0.804,0.624 0.204,0.245 0.342,0.525 0.413,0.842 0.072,0.315 0.071,0.664 -0.007,1.044 -0.056,0.282 -0.14,0.529 -0.247,0.74 -0.11,0.211 -0.241,0.392 -0.396,0.543 -0.155,0.149 -0.332,0.273 -0.526,0.37 -0.196,0.095 -0.409,0.17 -0.64,0.223l1.032 3.484 -0.015 0.074 -1.704 -0.343 -0.876 -3.111zm-11.747 6.796c0.053,-0.298 0.071,-0.566 0.055,-0.805 -0.015,-0.239 -0.066,-0.446 -0.148,-0.618 -0.083,-0.175 -0.197,-0.316 -0.343,-0.424 -0.145,-0.108 -0.321,-0.18 -0.524,-0.216 -0.198,-0.035 -0.382,-0.027 -0.555,0.024 -0.173,0.05 -0.33,0.143 -0.468,0.278 -0.139,0.134 -0.258,0.31 -0.36,0.528 -0.1,0.217 -0.177,0.475 -0.23,0.774l-0.049 0.278c-0.055,0.298 -0.072,0.568 -0.053,0.808 0.019,0.24 0.072,0.449 0.156,0.624 0.084,0.175 0.198,0.316 0.347,0.424 0.145,0.108 0.316,0.181 0.514,0.216 0.411,0.074 0.755,-0.027 1.032,-0.301 0.278,-0.273 0.469,-0.71 0.577,-1.311l0.049 -0.279zm0.878 0.444c-0.072,0.406 -0.191,0.761 -0.354,1.062 -0.164,0.303 -0.363,0.549 -0.595,0.738 -0.233,0.189 -0.496,0.319 -0.788,0.39 -0.293,0.072 -0.606,0.079 -0.934,0.019 -0.328,-0.059 -0.617,-0.172 -0.867,-0.34 -0.25,-0.167 -0.453,-0.381 -0.61,-0.641 -0.157,-0.258 -0.261,-0.558 -0.311,-0.898 -0.052,-0.341 -0.042,-0.715 0.031,-1.121l0.048 -0.271c0.072,-0.405 0.192,-0.76 0.358,-1.063 0.166,-0.303 0.367,-0.55 0.601,-0.74 0.236,-0.19 0.499,-0.321 0.791,-0.393 0.293,-0.071 0.602,-0.077 0.93,-0.019 0.33,0.059 0.621,0.173 0.872,0.341 0.25,0.168 0.454,0.383 0.608,0.643 0.154,0.259 0.255,0.559 0.304,0.902 0.049,0.341 0.038,0.714 -0.036,1.12l-0.048 0.271zm-61.938 -15.116l0.359 5.234 0.781 -0.053c0.638,-0.043 1.11,-0.287 1.416,-0.731 0.305,-0.446 0.43,-1.06 0.376,-1.841l-0.024 -0.367c-0.055,-0.798 -0.262,-1.389 -0.62,-1.779 -0.358,-0.388 -0.856,-0.561 -1.49,-0.517l-0.798 0.054zm-1.169 6.644l-0.535 -7.842 2.413 -0.164c0.526,-0.037 1.018,0.022 1.469,0.171 0.452,0.152 0.846,0.381 1.183,0.687 0.337,0.308 0.609,0.685 0.816,1.133 0.207,0.447 0.33,0.951 0.368,1.512l0.025 0.355c0.038,0.559 -0.015,1.075 -0.157,1.545 -0.142,0.469 -0.362,0.878 -0.658,1.229 -0.295,0.35 -0.658,0.631 -1.086,0.841 -0.429,0.209 -0.91,0.331 -1.441,0.367l-2.397 0.166zm-9.15 0.897l-1.608 0.189 -0.918 -7.805 1.608 -0.189 0.918 7.805zm56.443 -3.558l1.956 0.183 -0.709 -3.021 -1.247 2.838zm2.269 1.53l-2.827 -0.266 -0.689 1.563 -1.713 -0.162 3.646 -7.551 1.493 0.141 2.195 8.099 -1.713 -0.161 -0.392 -1.663zm9.127 2.685l-1.606 -0.198 -2.497 -5.519 -0.632 5.132 -1.608 -0.198 0.963 -7.8 1.607 0.199 2.499 5.53 0.635 -5.143 1.602 0.198 -0.963 7.799zm-27.593 -2.26l-1.618 -0.048 0.226 -7.854 1.618 0.046 -0.226 7.856zm-45.571 10.981l-0.923 0.166 -0.427 -2.371 -2.386 0.429 0.427 2.371 -0.927 0.167 -0.961 -5.336 0.928 -0.167 0.399 2.221 2.385 -0.429 -0.399 -2.222 0.924 -0.166 0.96 5.337zm16.312 -6.754l-1.683 0.161 0.444 4.642 -0.93 0.089 -0.444 -4.641 -1.668 0.16 -0.074 -0.757 4.282 -0.409 0.073 0.755zm46.758 3.301l1.561 0.188 -0.512 -2.327 -1.049 2.139zm1.732 0.974l-2.085 -0.251 -0.587 1.201 -0.973 -0.117 2.681 -5.139 0.84 0.102 1.389 5.627 -0.976 -0.117 -0.289 -1.306zm-29.795 -8.658l-1.619 0.026 -0.056 -3.367 -3.157 0.053 0.056 3.367 -1.619 0.027 -0.13 -7.858 1.619 -0.028 0.052 3.185 3.158 -0.051 -0.053 -3.185 1.619 -0.026 0.13 7.857zm-28.289 7.263l0.961 -0.123c0.167,-0.022 0.311,-0.062 0.431,-0.123 0.12,-0.06 0.216,-0.135 0.29,-0.224 0.073,-0.089 0.125,-0.191 0.153,-0.305 0.027,-0.114 0.033,-0.236 0.016,-0.367 -0.016,-0.137 -0.053,-0.26 -0.106,-0.368 -0.054,-0.106 -0.127,-0.194 -0.218,-0.264 -0.092,-0.069 -0.204,-0.118 -0.336,-0.144 -0.132,-0.028 -0.287,-0.03 -0.464,-0.007l-0.957 0.122 0.23 1.803zm1.137 0.617l-1.041 0.133 0.264 2.072 -0.935 0.119 -0.686 -5.379 1.891 -0.241c0.308,-0.039 0.587,-0.039 0.838,0.001 0.25,0.039 0.467,0.116 0.651,0.232 0.183,0.116 0.331,0.268 0.444,0.459 0.11,0.191 0.184,0.42 0.218,0.686 0.046,0.36 -0.002,0.672 -0.146,0.936 -0.142,0.265 -0.36,0.482 -0.654,0.653l1.494 2.087 0.007 0.048 -1.001 0.128 -1.344 -1.934zm19.85 -0.271l2.46 -0.086 0.027 0.752 -3.403 0.118 -0.188 -5.419 0.941 -0.032 0.163 4.667zm-14.582 -6.641l-1.611 0.154 -3.635 -4.845 0.497 5.149 -1.612 0.154 -0.753 -7.823 1.611 -0.154 3.64 4.854 -0.497 -5.157 1.606 -0.155 0.754 7.823zm25.418 -3.88l1.964 0.021 -0.957 -2.951 -1.007 2.93zm2.388 1.338l-2.84 -0.03 -0.555 1.614 -1.722 -0.019 3.007 -7.828 1.499 0.016 2.861 7.889 -1.721 -0.018 -0.529 -1.624zm-38.891 10.342l1.553 -0.235 -1.114 -2.107 -0.439 2.342zm1.929 0.475l-2.077 0.317 -0.244 1.313 -0.969 0.148 1.21 -5.669 0.836 -0.127 2.844 5.052 -0.973 0.148 -0.627 -1.182zm14.064 -2.344l1.568 -0.119 -0.954 -2.183 -0.614 2.302zm1.889 0.619l-2.095 0.159 -0.342 1.292 -0.976 0.074 1.631 -5.562 0.843 -0.064 2.457 5.252 -0.981 0.075 -0.537 -1.226zm3.155 -10.614l0.091 2.12 1.386 -0.06c0.21,-0.009 0.388,-0.043 0.536,-0.102 0.149,-0.058 0.272,-0.135 0.369,-0.23 0.097,-0.096 0.167,-0.208 0.21,-0.335 0.043,-0.125 0.062,-0.262 0.056,-0.409 -0.008,-0.17 -0.036,-0.32 -0.084,-0.453 -0.05,-0.133 -0.122,-0.245 -0.217,-0.336 -0.097,-0.091 -0.219,-0.16 -0.369,-0.205 -0.15,-0.044 -0.327,-0.06 -0.531,-0.052l-1.447 0.062zm-0.048 -1.143l1.197 -0.052c0.414,-0.024 0.718,-0.125 0.912,-0.3 0.194,-0.176 0.285,-0.418 0.271,-0.728 -0.015,-0.355 -0.129,-0.608 -0.343,-0.755 -0.212,-0.148 -0.542,-0.212 -0.989,-0.193l-1.132 0.048 0.084 1.98zm-1.422 4.631l-0.335 -7.853 2.75 -0.116c0.456,-0.02 0.866,0.005 1.23,0.076 0.363,0.072 0.672,0.191 0.93,0.359 0.258,0.166 0.458,0.382 0.601,0.645 0.142,0.265 0.221,0.58 0.237,0.948 0.008,0.178 -0.008,0.353 -0.046,0.52 -0.037,0.167 -0.098,0.325 -0.185,0.473 -0.085,0.147 -0.195,0.283 -0.33,0.405 -0.135,0.122 -0.299,0.227 -0.49,0.31 0.233,0.048 0.432,0.127 0.601,0.237 0.17,0.11 0.31,0.239 0.422,0.39 0.114,0.149 0.198,0.315 0.254,0.493 0.057,0.18 0.088,0.365 0.096,0.555 0.033,0.762 -0.188,1.349 -0.661,1.759 -0.474,0.407 -1.166,0.631 -2.071,0.671l-3.003 0.128zm-31.013 -0.754l1.288 -0.217c0.21,-0.035 0.389,-0.094 0.536,-0.175 0.15,-0.081 0.268,-0.182 0.356,-0.3 0.087,-0.12 0.146,-0.253 0.176,-0.402 0.03,-0.15 0.03,-0.312 0,-0.485 -0.06,-0.365 -0.214,-0.636 -0.456,-0.81 -0.243,-0.174 -0.579,-0.225 -1.008,-0.153l-1.282 0.216 0.39 2.326zm1.489 1.079l-1.272 0.215 0.478 2.837 -1.597 0.268 -1.303 -7.751 2.88 -0.484c0.446,-0.075 0.856,-0.092 1.227,-0.051 0.373,0.043 0.697,0.14 0.975,0.297 0.278,0.155 0.507,0.367 0.687,0.637 0.182,0.268 0.303,0.595 0.367,0.978 0.048,0.284 0.059,0.544 0.034,0.779 -0.026,0.237 -0.084,0.453 -0.176,0.649 -0.091,0.195 -0.211,0.374 -0.36,0.533 -0.148,0.161 -0.32,0.306 -0.517,0.438l2.209 2.886 0.013 0.073 -1.714 0.288 -1.931 -2.592zm90.125 12.192l-0.923 -0.192 -1.582 -4.26 -0.783 3.767 -0.923 -0.192 1.106 -5.309 0.922 0.193 1.586 4.275 0.787 -3.781 0.915 0.191 -1.105 5.308zm-1.952 -12.373l1.938 0.327 -0.484 -3.065 -1.454 2.738zm2.15 1.692l-2.799 -0.472 -0.802 1.508 -1.697 -0.287 4.192 -7.262 1.48 0.25 1.592 8.239 -1.698 -0.288 -0.268 -1.688zm-11.676 3.81l-1.674 -0.237 -0.654 4.617 -0.926 -0.132 0.655 -4.616 -1.659 -0.236 0.106 -0.751 4.259 0.603 -0.107 0.752zm-25.098 -0.248c-0.013,0.412 -0.077,0.78 -0.195,1.103 -0.117,0.323 -0.277,0.595 -0.479,0.817 -0.202,0.221 -0.444,0.389 -0.723,0.502 -0.278,0.114 -0.586,0.166 -0.921,0.156 -0.332,-0.009 -0.634,-0.079 -0.907,-0.208 -0.271,-0.129 -0.504,-0.31 -0.697,-0.543 -0.194,-0.233 -0.341,-0.514 -0.441,-0.844 -0.103,-0.329 -0.146,-0.7 -0.134,-1.112l0.007 -0.276c0.012,-0.412 0.078,-0.78 0.197,-1.104 0.12,-0.325 0.283,-0.598 0.487,-0.82 0.202,-0.224 0.445,-0.392 0.723,-0.506 0.279,-0.113 0.585,-0.165 0.917,-0.155 0.336,0.009 0.64,0.079 0.913,0.208 0.272,0.13 0.505,0.311 0.696,0.545 0.191,0.234 0.335,0.516 0.434,0.847 0.098,0.331 0.141,0.703 0.13,1.115l-0.007 0.275z"/>
   <path class="fil0" d="M160.608 190.166l-16.602 6.286 -3.949 -5.641 -20.552 1.45c0,0 25.146,-4.19 33.688,-9.671l-1.934 6.931 9.349 0.645zm-117.309 1.473c13.697,3.679 30.675,5.974 48.568,5.974 17.44,0 34.172,-2.225 47.665,-5.734l6.591 8.996c-0.168,0.055 -0.336,0.108 -0.505,0.162 -15.096,4.835 -33.915,7.704 -54.32,7.704 -20.348,0 -39.119,-2.853 -54.193,-7.664 -0.204,-0.064 -0.407,-0.129 -0.609,-0.196l6.803 -9.242zm20.436 0.663l-20.873 -1.571 -4.03 5.722 -16.44 -6.206 9.107 -0.968 -1.935 -7.172c0,0 9.671,6.286 34.171,10.195z"/>
   <path class="fil1" d="M59.752 202.564c-0.332,-0.066 -0.499,-0.1 -0.832,-0.165 -0.585,-1.518 -0.879,-2.278 -1.469,-3.797 -0.269,1.353 -0.404,2.029 -0.669,3.381 -0.335,-0.064 -0.501,-0.097 -0.835,-0.161 0.373,-1.906 0.562,-2.86 0.941,-4.765 0.335,0.065 0.503,0.097 0.839,0.161 0.593,1.525 0.887,2.287 1.473,3.813 0.273,-1.357 0.41,-2.034 0.685,-3.391 0.332,0.065 0.498,0.098 0.832,0.165 -0.389,1.903 -0.582,2.854 -0.965,4.759zm64.021 -3.693c0.041,0.163 0.062,0.243 0.103,0.405 0.096,-0.175 0.225,-0.32 0.385,-0.437 0.161,-0.116 0.349,-0.196 0.566,-0.236 0.172,-0.033 0.333,-0.039 0.481,-0.02 0.15,0.021 0.285,0.075 0.405,0.16 0.119,0.086 0.223,0.208 0.31,0.366 0.086,0.157 0.153,0.356 0.2,0.597 0.177,0.916 0.264,1.373 0.441,2.289 -0.321,0.061 -0.481,0.092 -0.802,0.152 -0.177,-0.919 -0.266,-1.378 -0.446,-2.296 -0.022,-0.122 -0.056,-0.222 -0.1,-0.301 -0.044,-0.079 -0.097,-0.139 -0.161,-0.181 -0.063,-0.043 -0.137,-0.069 -0.219,-0.076 -0.083,-0.009 -0.174,-0.002 -0.277,0.017 -0.165,0.031 -0.301,0.098 -0.409,0.2 -0.107,0.102 -0.183,0.227 -0.229,0.374 0.198,1.007 0.297,1.511 0.493,2.52 -0.321,0.061 -0.481,0.092 -0.801,0.154 -0.277,-1.417 -0.417,-2.125 -0.698,-3.54 0.304,-0.06 0.454,-0.089 0.758,-0.147zm-3.51 2.468c0.026,0.16 0.068,0.309 0.125,0.445 0.057,0.137 0.13,0.254 0.218,0.348 0.089,0.095 0.194,0.164 0.312,0.208 0.119,0.043 0.254,0.053 0.405,0.028 0.147,-0.024 0.271,-0.076 0.371,-0.154 0.099,-0.079 0.175,-0.179 0.227,-0.296 0.051,-0.118 0.082,-0.251 0.094,-0.398 0.01,-0.149 0.003,-0.303 -0.024,-0.463 -0.005,-0.029 -0.007,-0.042 -0.012,-0.069 -0.026,-0.158 -0.068,-0.305 -0.125,-0.441 -0.059,-0.136 -0.131,-0.252 -0.22,-0.346 -0.089,-0.094 -0.193,-0.165 -0.313,-0.211 -0.12,-0.046 -0.255,-0.056 -0.407,-0.032 -0.15,0.024 -0.274,0.078 -0.371,0.158 -0.096,0.082 -0.17,0.182 -0.223,0.299 -0.054,0.118 -0.085,0.251 -0.095,0.398 -0.01,0.146 0,0.299 0.026,0.457 0.004,0.027 0.006,0.041 0.012,0.069zm-0.818 0.064c-0.043,-0.26 -0.045,-0.505 -0.006,-0.738 0.039,-0.232 0.116,-0.442 0.232,-0.628 0.114,-0.185 0.267,-0.342 0.458,-0.468 0.191,-0.125 0.416,-0.21 0.677,-0.253 0.265,-0.042 0.509,-0.035 0.733,0.024 0.224,0.057 0.421,0.156 0.59,0.296 0.17,0.14 0.31,0.313 0.423,0.521 0.11,0.208 0.188,0.443 0.23,0.701 0.005,0.027 0.007,0.042 0.013,0.07 0.042,0.258 0.044,0.504 0.004,0.738 -0.039,0.233 -0.116,0.443 -0.232,0.627 -0.115,0.185 -0.27,0.338 -0.461,0.463 -0.192,0.124 -0.417,0.207 -0.678,0.251 -0.262,0.042 -0.504,0.034 -0.724,-0.022 -0.223,-0.058 -0.418,-0.154 -0.588,-0.292 -0.168,-0.138 -0.31,-0.311 -0.423,-0.52 -0.113,-0.21 -0.193,-0.443 -0.235,-0.702l-0.013 -0.068zm-0.393 1.905c-0.323,0.046 -0.484,0.07 -0.806,0.117 -0.211,-1.428 -0.316,-2.142 -0.529,-3.57 0.323,-0.047 0.485,-0.07 0.81,-0.117 0.21,1.429 0.316,2.142 0.525,3.57zm-1.523 -4.371c-0.019,-0.124 0.005,-0.232 0.072,-0.325 0.067,-0.093 0.173,-0.15 0.319,-0.171 0.149,-0.021 0.268,0.003 0.36,0.073 0.092,0.069 0.146,0.166 0.166,0.288 0.018,0.122 -0.008,0.228 -0.076,0.32 -0.068,0.092 -0.176,0.149 -0.321,0.17 -0.148,0.022 -0.266,-0.003 -0.358,-0.072 -0.09,-0.067 -0.145,-0.164 -0.162,-0.283zm-1.153 0.219c0.048,0.348 0.071,0.522 0.118,0.869 0.255,-0.034 0.383,-0.05 0.638,-0.084 0.031,0.238 0.047,0.357 0.079,0.595 -0.254,0.033 -0.382,0.05 -0.637,0.084 0.108,0.798 0.163,1.198 0.27,1.996 0.011,0.082 0.029,0.146 0.054,0.194 0.024,0.049 0.054,0.085 0.092,0.108 0.036,0.023 0.079,0.036 0.125,0.04 0.047,0.004 0.098,0.003 0.154,-0.006 0.054,-0.006 0.107,-0.017 0.159,-0.032 0.051,-0.013 0.091,-0.026 0.118,-0.037 0.033,0.249 0.049,0.373 0.083,0.622 -0.062,0.025 -0.134,0.053 -0.217,0.08 -0.083,0.027 -0.185,0.05 -0.304,0.065 -0.133,0.019 -0.259,0.016 -0.378,-0.004 -0.118,-0.02 -0.224,-0.064 -0.318,-0.131 -0.094,-0.069 -0.173,-0.164 -0.237,-0.286 -0.063,-0.121 -0.108,-0.274 -0.133,-0.46 -0.11,-0.816 -0.166,-1.225 -0.277,-2.042 -0.237,0.032 -0.356,0.048 -0.593,0.08 -0.033,-0.238 -0.05,-0.357 -0.083,-0.595 0.238,-0.032 0.357,-0.047 0.595,-0.08 -0.048,-0.347 -0.072,-0.521 -0.119,-0.869 0.325,-0.043 0.487,-0.064 0.811,-0.107zm-2.888 4.29c0.094,-0.01 0.18,-0.033 0.258,-0.067 0.078,-0.033 0.147,-0.073 0.207,-0.121 0.062,-0.048 0.114,-0.1 0.156,-0.156 0.043,-0.059 0.076,-0.116 0.099,-0.172 -0.031,-0.271 -0.047,-0.405 -0.079,-0.675 -0.175,0.021 -0.262,0.029 -0.436,0.049 -0.3,0.036 -0.52,0.114 -0.659,0.235 -0.138,0.12 -0.196,0.277 -0.173,0.466 0.008,0.073 0.028,0.14 0.06,0.198 0.031,0.059 0.074,0.108 0.128,0.148 0.053,0.039 0.117,0.068 0.19,0.085 0.073,0.017 0.156,0.02 0.249,0.01zm0.956 0.477c-0.026,-0.038 -0.05,-0.086 -0.072,-0.143 -0.022,-0.055 -0.04,-0.116 -0.06,-0.18 -0.047,0.061 -0.101,0.12 -0.16,0.176 -0.06,0.056 -0.127,0.106 -0.201,0.151 -0.074,0.046 -0.157,0.085 -0.246,0.116 -0.09,0.032 -0.186,0.054 -0.29,0.066 -0.179,0.021 -0.349,0.012 -0.506,-0.023 -0.157,-0.037 -0.294,-0.097 -0.413,-0.18 -0.119,-0.084 -0.217,-0.187 -0.293,-0.31 -0.076,-0.124 -0.125,-0.261 -0.142,-0.414 -0.023,-0.191 -0.007,-0.366 0.049,-0.523 0.056,-0.155 0.148,-0.292 0.276,-0.408 0.129,-0.115 0.29,-0.211 0.487,-0.287 0.198,-0.074 0.427,-0.127 0.687,-0.158 0.204,-0.023 0.306,-0.035 0.51,-0.058 -0.01,-0.095 -0.017,-0.141 -0.027,-0.235 -0.023,-0.185 -0.091,-0.327 -0.209,-0.428 -0.118,-0.099 -0.284,-0.137 -0.497,-0.111 -0.097,0.01 -0.18,0.032 -0.255,0.067 -0.076,0.035 -0.139,0.077 -0.187,0.126 -0.049,0.049 -0.085,0.106 -0.108,0.169 -0.024,0.063 -0.031,0.128 -0.024,0.196 -0.324,0.038 -0.486,0.057 -0.81,0.095 -0.017,-0.142 0.002,-0.282 0.056,-0.421 0.055,-0.14 0.141,-0.268 0.259,-0.387 0.116,-0.117 0.261,-0.217 0.439,-0.3 0.176,-0.083 0.378,-0.138 0.604,-0.164 0.204,-0.023 0.394,-0.019 0.571,0.013 0.178,0.033 0.336,0.093 0.472,0.182 0.137,0.088 0.248,0.204 0.335,0.351 0.086,0.145 0.142,0.321 0.166,0.526 0.073,0.636 0.11,0.953 0.183,1.59 0.036,0.322 0.112,0.574 0.225,0.756 0.002,0.023 0.003,0.034 0.006,0.056 -0.33,0.038 -0.495,0.056 -0.825,0.094zm-4.758 -0.147c0.769,-0.074 1.152,-0.111 1.921,-0.183 0.024,0.258 0.036,0.387 0.06,0.645 -1.17,0.109 -1.755,0.165 -2.923,0.278 -0.021,-0.21 -0.031,-0.316 -0.052,-0.526 0.637,-1.036 0.956,-1.555 1.597,-2.59 -0.721,0.069 -1.082,0.104 -1.803,0.174 -0.025,-0.26 -0.039,-0.39 -0.064,-0.65 1.133,-0.11 1.699,-0.164 2.835,-0.271 0.019,0.205 0.029,0.307 0.048,0.511 -0.65,1.044 -0.974,1.566 -1.619,2.612zm-1.671 0.797c-0.325,0.026 -0.486,0.04 -0.81,0.066 -0.119,-1.438 -0.18,-2.157 -0.3,-3.594 0.325,-0.028 0.488,-0.041 0.814,-0.067 0.119,1.438 0.178,2.156 0.296,3.595zm-1.24 -4.458c-0.01,-0.124 0.022,-0.231 0.094,-0.319 0.072,-0.088 0.183,-0.139 0.33,-0.151 0.148,-0.011 0.265,0.02 0.352,0.096 0.088,0.075 0.136,0.174 0.146,0.298 0.011,0.123 -0.02,0.227 -0.094,0.314 -0.074,0.088 -0.185,0.137 -0.332,0.15 -0.147,0.012 -0.264,-0.019 -0.35,-0.094 -0.086,-0.073 -0.135,-0.172 -0.146,-0.294zm-2.885 1.146c0.021,0.166 0.032,0.249 0.053,0.415 0.116,-0.161 0.261,-0.291 0.434,-0.387 0.173,-0.097 0.369,-0.152 0.588,-0.166 0.174,-0.012 0.335,0.002 0.48,0.039 0.144,0.039 0.271,0.108 0.379,0.207 0.107,0.1 0.194,0.234 0.26,0.401 0.066,0.167 0.107,0.372 0.124,0.616 0.062,0.93 0.092,1.395 0.153,2.326 -0.324,0.021 -0.486,0.031 -0.81,0.053 -0.063,-0.932 -0.093,-1.399 -0.157,-2.331 -0.008,-0.125 -0.029,-0.228 -0.063,-0.311 -0.034,-0.085 -0.079,-0.151 -0.136,-0.201 -0.058,-0.049 -0.127,-0.083 -0.208,-0.102 -0.08,-0.017 -0.173,-0.023 -0.275,-0.016 -0.167,0.011 -0.311,0.061 -0.428,0.149 -0.119,0.089 -0.21,0.204 -0.274,0.343 0.071,1.025 0.106,1.537 0.176,2.561 -0.325,0.023 -0.486,0.033 -0.81,0.057 -0.1,-1.44 -0.151,-2.16 -0.253,-3.6 0.307,-0.021 0.461,-0.031 0.767,-0.053zm-2.948 3.19c0.094,-0.004 0.181,-0.021 0.26,-0.049 0.08,-0.028 0.153,-0.064 0.218,-0.107 0.062,-0.042 0.117,-0.091 0.164,-0.146 0.046,-0.055 0.083,-0.11 0.11,-0.165 -0.013,-0.27 -0.021,-0.406 -0.033,-0.678 -0.176,0.008 -0.263,0.012 -0.439,0.02 -0.3,0.014 -0.525,0.078 -0.671,0.19 -0.147,0.112 -0.215,0.263 -0.206,0.454 0.005,0.074 0.019,0.14 0.048,0.201 0.027,0.061 0.067,0.113 0.118,0.156 0.052,0.043 0.112,0.076 0.184,0.098 0.071,0.022 0.155,0.031 0.247,0.026zm0.92 0.54c-0.024,-0.041 -0.045,-0.09 -0.062,-0.146 -0.019,-0.059 -0.033,-0.119 -0.048,-0.185 -0.05,0.058 -0.108,0.113 -0.17,0.164 -0.064,0.052 -0.135,0.098 -0.212,0.139 -0.077,0.041 -0.162,0.073 -0.253,0.098 -0.09,0.027 -0.189,0.042 -0.293,0.047 -0.18,0.01 -0.348,-0.011 -0.502,-0.057 -0.154,-0.047 -0.288,-0.117 -0.4,-0.207 -0.113,-0.091 -0.203,-0.201 -0.271,-0.329 -0.068,-0.128 -0.106,-0.268 -0.113,-0.422 -0.01,-0.193 0.018,-0.365 0.084,-0.518 0.066,-0.152 0.167,-0.282 0.303,-0.39 0.135,-0.106 0.303,-0.19 0.505,-0.252 0.201,-0.062 0.433,-0.1 0.694,-0.113 0.205,-0.009 0.307,-0.014 0.512,-0.024 -0.004,-0.094 -0.007,-0.142 -0.011,-0.236 -0.009,-0.187 -0.069,-0.333 -0.179,-0.441 -0.11,-0.108 -0.273,-0.156 -0.487,-0.144 -0.096,0.005 -0.183,0.021 -0.261,0.051 -0.075,0.028 -0.141,0.066 -0.193,0.112 -0.052,0.046 -0.093,0.1 -0.12,0.162 -0.027,0.06 -0.038,0.126 -0.036,0.195 -0.325,0.015 -0.488,0.023 -0.813,0.04 -0.008,-0.142 0.02,-0.281 0.085,-0.416 0.064,-0.136 0.157,-0.259 0.282,-0.368 0.124,-0.11 0.277,-0.201 0.458,-0.272 0.182,-0.071 0.386,-0.112 0.615,-0.123 0.203,-0.011 0.392,0.008 0.567,0.051 0.174,0.045 0.326,0.115 0.457,0.212 0.129,0.098 0.234,0.222 0.31,0.373 0.076,0.151 0.119,0.33 0.129,0.536 0.03,0.64 0.044,0.959 0.075,1.599 0.016,0.324 0.073,0.581 0.173,0.769 0.001,0.022 0.002,0.034 0.003,0.057 -0.332,0.014 -0.497,0.024 -0.828,0.038zm-5.405 -1.553c0.005,0.16 0.027,0.31 0.064,0.449 0.035,0.141 0.089,0.263 0.161,0.367 0.073,0.106 0.163,0.187 0.27,0.245 0.105,0.058 0.233,0.085 0.38,0.081 0.182,-0.006 0.331,-0.049 0.444,-0.129 0.114,-0.08 0.205,-0.184 0.272,-0.313 -0.017,-0.634 -0.027,-0.951 -0.045,-1.585 -0.075,-0.125 -0.172,-0.223 -0.292,-0.293 -0.118,-0.07 -0.267,-0.102 -0.444,-0.096 -0.147,0.004 -0.274,0.038 -0.379,0.104 -0.105,0.065 -0.191,0.152 -0.255,0.261 -0.065,0.109 -0.112,0.235 -0.141,0.379 -0.03,0.145 -0.041,0.298 -0.037,0.46 0.001,0.027 0.001,0.042 0.002,0.07zm-0.812 -0.046c-0.009,-0.272 0.018,-0.523 0.077,-0.752 0.06,-0.228 0.151,-0.426 0.273,-0.592 0.12,-0.166 0.27,-0.296 0.444,-0.39 0.177,-0.095 0.378,-0.146 0.601,-0.152 0.219,-0.006 0.41,0.025 0.57,0.096 0.161,0.069 0.301,0.172 0.418,0.307 0.012,-0.147 0.017,-0.22 0.028,-0.365 0.294,-0.009 0.44,-0.013 0.734,-0.02 0.04,1.402 0.058,2.104 0.095,3.506 0.007,0.241 -0.026,0.458 -0.102,0.649 -0.075,0.191 -0.182,0.353 -0.323,0.486 -0.139,0.133 -0.308,0.237 -0.509,0.309 -0.197,0.074 -0.418,0.114 -0.657,0.121 -0.101,0.003 -0.213,-0.004 -0.335,-0.023 -0.123,-0.017 -0.247,-0.048 -0.372,-0.091 -0.127,-0.044 -0.248,-0.102 -0.362,-0.175 -0.116,-0.072 -0.217,-0.161 -0.3,-0.266 0.147,-0.201 0.221,-0.299 0.369,-0.499 0.139,0.153 0.286,0.262 0.445,0.327 0.16,0.063 0.322,0.092 0.489,0.088 0.269,-0.007 0.481,-0.086 0.632,-0.236 0.15,-0.15 0.222,-0.367 0.215,-0.648 -0.003,-0.098 -0.004,-0.146 -0.008,-0.244 -0.109,0.13 -0.241,0.23 -0.391,0.302 -0.152,0.071 -0.329,0.109 -0.533,0.115 -0.22,0.006 -0.419,-0.034 -0.599,-0.12 -0.18,-0.088 -0.336,-0.21 -0.466,-0.368 -0.131,-0.159 -0.234,-0.347 -0.308,-0.569 -0.074,-0.221 -0.114,-0.463 -0.122,-0.725 -0.001,-0.029 -0.002,-0.042 -0.003,-0.071zm-0.266 -1.037c-0.053,-0.008 -0.107,-0.014 -0.162,-0.017 -0.056,-0.005 -0.111,-0.006 -0.169,-0.006 -0.198,0.003 -0.357,0.043 -0.479,0.119 -0.121,0.078 -0.213,0.184 -0.271,0.318 0.014,0.986 0.02,1.481 0.034,2.467 -0.326,0.004 -0.488,0.006 -0.813,0.01 -0.021,-1.441 -0.03,-2.163 -0.051,-3.606 0.31,-0.004 0.466,-0.006 0.779,-0.01 0.01,0.16 0.015,0.24 0.025,0.402 0.09,-0.148 0.202,-0.264 0.336,-0.349 0.134,-0.085 0.293,-0.128 0.476,-0.131 0.048,-0.001 0.1,0.004 0.16,0.013 0.06,0.009 0.103,0.019 0.129,0.031 0.003,0.303 0.004,0.455 0.006,0.759zm-3.447 0.349c0.001,-0.271 -0.022,-0.51 -0.074,-0.719 -0.052,-0.208 -0.127,-0.383 -0.226,-0.524 -0.101,-0.14 -0.224,-0.246 -0.37,-0.32 -0.146,-0.072 -0.313,-0.109 -0.498,-0.11 -0.181,-0.002 -0.346,0.034 -0.492,0.106 -0.145,0.07 -0.269,0.177 -0.372,0.316 -0.102,0.141 -0.182,0.313 -0.236,0.521 -0.056,0.208 -0.085,0.446 -0.086,0.718 0,0.102 0,0.152 -0.001,0.253 0,0.273 0.026,0.511 0.08,0.721 0.054,0.209 0.132,0.384 0.235,0.526 0.1,0.141 0.225,0.249 0.37,0.321 0.147,0.074 0.309,0.11 0.489,0.111 0.374,0.002 0.664,-0.139 0.867,-0.421 0.205,-0.284 0.308,-0.699 0.313,-1.246 0,-0.101 0,-0.151 0.001,-0.253zm0.844 0.259c-0.001,0.371 -0.053,0.701 -0.151,0.991 -0.099,0.292 -0.239,0.539 -0.416,0.741 -0.178,0.201 -0.39,0.356 -0.638,0.463 -0.248,0.108 -0.523,0.16 -0.823,0.16 -0.299,-0.003 -0.57,-0.057 -0.818,-0.168 -0.246,-0.109 -0.459,-0.267 -0.637,-0.47 -0.18,-0.204 -0.319,-0.452 -0.417,-0.745 -0.098,-0.292 -0.147,-0.623 -0.146,-0.991 0,-0.1 0,-0.149 0,-0.248 0.001,-0.369 0.052,-0.699 0.153,-0.993 0.099,-0.293 0.238,-0.542 0.418,-0.746 0.179,-0.203 0.393,-0.36 0.641,-0.467 0.251,-0.109 0.524,-0.161 0.825,-0.159 0.303,0.001 0.578,0.057 0.828,0.167 0.249,0.111 0.462,0.27 0.638,0.475 0.177,0.205 0.313,0.455 0.409,0.749 0.095,0.295 0.14,0.626 0.137,0.994 -0.001,0.1 -0.001,0.15 -0.003,0.247zm-6.756 -2.279c-0.011,0.351 -0.017,0.526 -0.027,0.877 0.256,0.007 0.384,0.011 0.64,0.02 -0.008,0.24 -0.012,0.36 -0.019,0.599 -0.256,-0.008 -0.386,-0.012 -0.641,-0.019 -0.026,0.805 -0.04,1.207 -0.065,2.011 -0.002,0.083 0.005,0.149 0.02,0.201 0.018,0.052 0.041,0.092 0.074,0.12 0.033,0.03 0.072,0.05 0.117,0.061 0.044,0.011 0.095,0.019 0.151,0.021 0.055,0.001 0.11,-0.001 0.163,-0.007 0.053,-0.006 0.093,-0.013 0.122,-0.018 -0.008,0.25 -0.012,0.376 -0.02,0.626 -0.065,0.016 -0.141,0.031 -0.227,0.045 -0.086,0.014 -0.19,0.019 -0.31,0.015 -0.134,-0.004 -0.257,-0.026 -0.371,-0.065 -0.113,-0.039 -0.21,-0.1 -0.291,-0.182 -0.081,-0.083 -0.143,-0.189 -0.186,-0.319 -0.043,-0.131 -0.062,-0.289 -0.056,-0.476 0.027,-0.824 0.039,-1.236 0.064,-2.059 -0.238,-0.007 -0.358,-0.012 -0.596,-0.019 0.007,-0.239 0.01,-0.359 0.017,-0.6 0.24,0.008 0.359,0.012 0.598,0.019 0.011,-0.351 0.016,-0.525 0.027,-0.876 0.326,0.009 0.49,0.014 0.816,0.025zm-2.03 4.424c-0.324,-0.016 -0.487,-0.025 -0.811,-0.039 0.069,-1.442 0.105,-2.162 0.175,-3.603 0.326,0.015 0.489,0.023 0.814,0.039 -0.071,1.441 -0.107,2.161 -0.178,3.603zm-2.864 -0.135c0.055,-1.201 0.082,-1.802 0.138,-3.004 -0.221,-0.01 -0.332,-0.015 -0.553,-0.025 0.011,-0.239 0.016,-0.359 0.027,-0.6 0.221,0.011 0.332,0.016 0.554,0.026l0.01 -0.227c0.01,-0.22 0.053,-0.412 0.128,-0.576 0.074,-0.165 0.177,-0.302 0.308,-0.412 0.131,-0.11 0.289,-0.19 0.474,-0.239 0.186,-0.051 0.393,-0.071 0.622,-0.061 0.179,0.009 0.349,0.036 0.513,0.082 0.162,0.045 0.33,0.101 0.504,0.167 -0.063,0.266 -0.093,0.399 -0.157,0.664 -0.107,-0.043 -0.23,-0.085 -0.369,-0.126 -0.138,-0.042 -0.295,-0.067 -0.469,-0.074 -0.248,-0.012 -0.432,0.034 -0.549,0.135 -0.117,0.103 -0.18,0.262 -0.19,0.477 -0.004,0.091 -0.006,0.137 -0.011,0.227 0.286,0.014 0.429,0.02 0.715,0.033 -0.012,0.24 -0.017,0.36 -0.029,0.6 -0.285,-0.014 -0.429,-0.021 -0.713,-0.033 -0.057,1.201 -0.085,1.801 -0.141,3.003 -0.325,-0.015 -0.487,-0.022 -0.812,-0.037zm-3.324 -1.982c-0.011,0.162 -0.005,0.316 0.02,0.462 0.023,0.146 0.066,0.275 0.132,0.388 0.063,0.111 0.149,0.204 0.255,0.272 0.105,0.071 0.233,0.109 0.385,0.12 0.149,0.009 0.281,-0.013 0.395,-0.067 0.114,-0.055 0.211,-0.134 0.288,-0.236 0.077,-0.103 0.139,-0.225 0.184,-0.367 0.044,-0.141 0.071,-0.293 0.083,-0.455 0.002,-0.028 0.003,-0.042 0.005,-0.07 0.011,-0.16 0.003,-0.312 -0.021,-0.458 -0.024,-0.145 -0.068,-0.274 -0.133,-0.387 -0.064,-0.112 -0.148,-0.204 -0.255,-0.276 -0.106,-0.071 -0.235,-0.112 -0.387,-0.122 -0.151,-0.011 -0.284,0.013 -0.396,0.07 -0.112,0.057 -0.208,0.137 -0.287,0.239 -0.079,0.104 -0.14,0.225 -0.183,0.366 -0.043,0.141 -0.069,0.291 -0.081,0.451 -0.001,0.027 -0.002,0.042 -0.004,0.07zm-0.808 -0.124c0.018,-0.261 0.071,-0.501 0.163,-0.719 0.092,-0.218 0.216,-0.404 0.371,-0.559 0.155,-0.154 0.339,-0.271 0.553,-0.351 0.214,-0.079 0.453,-0.11 0.717,-0.091 0.265,0.016 0.501,0.079 0.704,0.187 0.203,0.107 0.372,0.248 0.505,0.422 0.131,0.174 0.228,0.374 0.288,0.603 0.06,0.228 0.081,0.473 0.062,0.735 -0.002,0.027 -0.003,0.041 -0.004,0.069 -0.018,0.262 -0.074,0.501 -0.165,0.721 -0.092,0.218 -0.214,0.404 -0.369,0.557 -0.155,0.153 -0.339,0.268 -0.554,0.347 -0.214,0.077 -0.453,0.108 -0.715,0.09 -0.264,-0.018 -0.497,-0.079 -0.698,-0.186 -0.203,-0.105 -0.371,-0.245 -0.503,-0.417 -0.133,-0.172 -0.23,-0.373 -0.292,-0.602 -0.063,-0.228 -0.086,-0.474 -0.068,-0.737 0.002,-0.027 0.003,-0.04 0.005,-0.069zm-0.091 -1.045c-0.053,-0.013 -0.106,-0.024 -0.16,-0.033 -0.055,-0.009 -0.111,-0.016 -0.168,-0.021 -0.196,-0.016 -0.36,0.009 -0.488,0.073 -0.13,0.065 -0.229,0.162 -0.3,0.289 -0.084,0.983 -0.126,1.476 -0.208,2.459 -0.324,-0.027 -0.486,-0.04 -0.81,-0.067 0.119,-1.438 0.179,-2.157 0.3,-3.595 0.31,0.025 0.466,0.038 0.776,0.064 -0.005,0.162 -0.008,0.242 -0.013,0.404 0.103,-0.14 0.226,-0.244 0.369,-0.315 0.141,-0.072 0.304,-0.101 0.487,-0.084 0.047,0.002 0.099,0.012 0.157,0.027 0.06,0.015 0.101,0.029 0.127,0.043 -0.028,0.302 -0.041,0.454 -0.069,0.756zm-5.283 -0.096c0.405,0.041 0.608,0.061 1.015,0.102 0.163,0.017 0.304,0.011 0.426,-0.017 0.12,-0.028 0.222,-0.075 0.305,-0.139 0.084,-0.065 0.148,-0.146 0.194,-0.243 0.045,-0.097 0.074,-0.206 0.086,-0.326 0.012,-0.113 0.005,-0.222 -0.018,-0.33 -0.024,-0.107 -0.069,-0.206 -0.137,-0.294 -0.067,-0.089 -0.157,-0.162 -0.269,-0.221 -0.111,-0.06 -0.25,-0.098 -0.413,-0.115 -0.407,-0.041 -0.61,-0.061 -1.017,-0.102 -0.069,0.674 -0.104,1.01 -0.172,1.685zm-0.069 0.673c-0.072,0.718 -0.11,1.076 -0.182,1.794 -0.337,-0.034 -0.505,-0.049 -0.842,-0.083 0.193,-1.932 0.291,-2.898 0.487,-4.83 0.747,0.074 1.12,0.112 1.866,0.187 0.283,0.029 0.531,0.092 0.743,0.192 0.212,0.098 0.387,0.224 0.524,0.376 0.137,0.153 0.235,0.328 0.295,0.524 0.059,0.196 0.076,0.405 0.053,0.626 -0.025,0.234 -0.086,0.439 -0.185,0.617 -0.098,0.178 -0.23,0.323 -0.395,0.435 -0.165,0.113 -0.36,0.193 -0.587,0.238 -0.226,0.046 -0.48,0.055 -0.762,0.027 -0.406,-0.042 -0.609,-0.062 -1.015,-0.103zm-1.551 -0.105c-0.7,-0.085 -1.05,-0.126 -1.749,-0.21 0.031,-0.26 0.047,-0.389 0.079,-0.649 0.699,0.084 1.05,0.126 1.75,0.211 -0.033,0.26 -0.048,0.389 -0.08,0.648zm-4.275 -2.437c-0.014,0.166 -0.021,0.25 -0.035,0.416 0.147,-0.135 0.317,-0.232 0.506,-0.29 0.191,-0.06 0.394,-0.074 0.611,-0.044 0.174,0.025 0.328,0.07 0.462,0.137 0.135,0.067 0.244,0.161 0.328,0.279 0.086,0.12 0.143,0.269 0.173,0.446 0.03,0.177 0.028,0.387 -0.006,0.628 -0.133,0.924 -0.198,1.385 -0.329,2.308 -0.322,-0.045 -0.483,-0.068 -0.806,-0.112 0.13,-0.927 0.196,-1.389 0.326,-2.314 0.018,-0.124 0.02,-0.23 0.004,-0.319 -0.016,-0.088 -0.046,-0.162 -0.093,-0.224 -0.045,-0.06 -0.106,-0.107 -0.181,-0.14 -0.076,-0.034 -0.165,-0.059 -0.267,-0.073 -0.166,-0.022 -0.317,-0.003 -0.452,0.059 -0.134,0.063 -0.248,0.156 -0.339,0.28 -0.143,1.017 -0.214,1.526 -0.355,2.543 -0.323,-0.044 -0.484,-0.067 -0.807,-0.111 0.198,-1.429 0.297,-2.143 0.496,-3.573 0.306,0.042 0.458,0.062 0.764,0.104zm-4.137 1.219c-0.026,0.161 -0.034,0.315 -0.025,0.462 0.009,0.149 0.041,0.282 0.094,0.4 0.054,0.118 0.129,0.216 0.228,0.295 0.1,0.079 0.224,0.13 0.374,0.156 0.148,0.024 0.282,0.015 0.402,-0.03 0.119,-0.043 0.223,-0.113 0.31,-0.207 0.087,-0.096 0.161,-0.211 0.218,-0.348 0.059,-0.137 0.101,-0.286 0.128,-0.446 0.004,-0.027 0.006,-0.041 0.011,-0.068 0.027,-0.158 0.035,-0.311 0.023,-0.458 -0.01,-0.147 -0.042,-0.28 -0.094,-0.397 -0.053,-0.119 -0.129,-0.218 -0.228,-0.299 -0.099,-0.082 -0.223,-0.136 -0.374,-0.159 -0.151,-0.026 -0.286,-0.015 -0.403,0.032 -0.119,0.046 -0.222,0.116 -0.311,0.211 -0.088,0.095 -0.161,0.211 -0.217,0.347 -0.057,0.135 -0.098,0.284 -0.124,0.44 -0.005,0.029 -0.008,0.042 -0.012,0.069zm-0.794 -0.198c0.042,-0.259 0.119,-0.494 0.233,-0.701 0.111,-0.208 0.253,-0.382 0.423,-0.522 0.17,-0.138 0.366,-0.237 0.587,-0.296 0.222,-0.059 0.463,-0.068 0.724,-0.024 0.264,0.043 0.492,0.127 0.685,0.254 0.193,0.126 0.347,0.283 0.463,0.467 0.115,0.186 0.191,0.395 0.229,0.629 0.038,0.231 0.035,0.478 -0.008,0.736 -0.004,0.028 -0.008,0.042 -0.011,0.07 -0.045,0.258 -0.121,0.492 -0.234,0.7 -0.112,0.21 -0.254,0.384 -0.423,0.521 -0.168,0.138 -0.364,0.235 -0.586,0.292 -0.221,0.058 -0.462,0.065 -0.722,0.022 -0.263,-0.041 -0.49,-0.126 -0.681,-0.251 -0.192,-0.124 -0.346,-0.278 -0.462,-0.462 -0.115,-0.185 -0.193,-0.393 -0.233,-0.627 -0.041,-0.234 -0.038,-0.481 0.004,-0.74 0.004,-0.027 0.006,-0.041 0.012,-0.068z"/>
   <path class="fil0" d="M13.781 114.259c0.131,0.011 0.214,0.143 0.232,0.282l-0.187 0.025 0.188 -0.021c0.022,0.197 0.046,0.396 0.066,0.593 0.117,1.139 0.019,2.282 -0.006,3.437 -0.01,0.36 -0.001,0.807 -0.369,0.942 -0.217,0.079 -0.426,0.05 -0.623,-0.037 0.347,0.448 0.751,0.853 1.194,1.2 0.323,0.255 0.703,0.432 1.073,0.623 1.234,0.635 2.55,1.135 3.924,1.308 1.054,-0.336 2.042,-0.926 2.581,-1.863 0.409,-0.711 0.578,-1.551 1.087,-2.246 0.24,-0.329 0.599,-0.608 1.025,-0.613 0,0.028 0.001,0.054 0.001,0.083l0.063 0.051c-0.692,0.843 -1.113,1.858 -1.504,2.948 -0.446,1.23 -1.079,2.512 -2.411,2.848 -0.164,0.041 -0.329,0.064 -0.496,0.072 0.148,0.381 0.371,0.732 0.667,1.028 1.022,1.016 2.575,1.292 3.941,1.178 0.988,-0.081 1.977,-0.369 2.771,-0.948 1.379,-1.004 2.088,-2.682 3.198,-3.824 0.625,-0.643 1.517,-0.988 2.398,-1.298 0.393,-0.139 0.793,-0.265 1.195,-0.385 -0.024,-0.008 -0.047,-0.017 -0.07,-0.024 -0.764,-0.292 -1.308,-0.984 -1.88,-1.586 -0.629,-0.655 -1.346,-1.252 -2.192,-1.55 0,0 -0.031,0.004 -0.05,-0.035 -0.018,-0.034 -0.01,-0.085 0.065,-0.074 0.992,0.338 1.984,0.7 2.715,1.48 0.588,0.616 1.245,1.249 1.99,1.481 0,0 0.121,-0.534 0.138,-0.851 0.001,-0.025 0.001,-0.025 0.005,-0.047 0.075,-0.702 0.402,-1.389 0.853,-1.907 0.068,-0.078 0.175,-0.194 0.236,-0.096 0.053,0.092 -0.017,0.208 -0.064,0.324 -0.094,0.232 -0.209,0.455 -0.321,0.68 -0.05,0.111 -0.058,0.154 -0.081,0.234 -0.222,0.769 -0.357,1.615 -0.2,2.354 0.327,0.723 0.74,1.41 0.87,2.202 0.01,0.062 0.014,0.077 0.024,0.138 0.17,0.97 0.344,2.031 0.922,2.658 0.506,0.55 1.236,0.8 1.812,1.29 0.664,0.564 1.263,1.205 1.961,1.724 1.391,1.034 2.829,2.124 4.547,2.341 1.306,0.166 2.638,-0.021 3.915,0.417 0.678,0.235 1.375,0.539 2.077,0.334 0.536,-0.159 0.966,-0.549 1.34,-0.938 0,0 0.046,-0.034 0.084,0.008 1.406,2.186 4.387,3.128 6.157,5.222 1.515,1.788 2.072,4.21 2.855,6.259 0.239,0.641 0.469,1.307 0.477,1.98 0.004,0.192 -0.004,0.444 -0.183,0.47 -0.16,0.021 -0.262,-0.144 -0.343,-0.257 -0.311,-0.442 -0.493,-0.971 -0.683,-1.491 -0.86,-2.364 -1.479,-4.882 -3.244,-6.596 -1.65,-1.603 -3.851,-2.682 -5.111,-4.629 0,0 -0.191,0.173 -0.341,0.296 -0.515,0.424 -1.17,0.677 -1.834,0.675 -0.789,-0.001 -1.537,-0.378 -2.276,-0.569 -1.411,-0.362 -2.929,-0.049 -4.305,-0.439 -1.545,-0.435 -2.862,-1.479 -4.117,-2.483 -0.817,-0.661 -1.495,-1.506 -2.4,-2.062 -0.551,-0.336 -1.126,-0.681 -1.428,-1.256 -0.413,-0.786 -0.545,-1.715 -0.687,-2.617 -0.008,-0.042 -0.008,-0.042 -0.013,-0.084 -0.149,-0.821 -0.482,-1.6 -0.723,-2.394 -1.267,0.407 -2.515,0.937 -3.592,1.703 -1.422,1.009 -1.97,2.975 -3.376,4.005 -1.084,0.794 -2.497,1.052 -3.867,1.019 -1.851,-0.045 -3.856,-0.623 -4.682,-2.257 -0.204,-0.406 -0.306,-0.86 -0.314,-1.318 0,0 -0.154,-0.025 -0.319,-0.05 -1.573,-0.251 -3.052,-0.913 -4.44,-1.712 -0.097,-0.056 -0.52,-0.352 -0.88,-0.716 -0.927,-0.938 -1.73,-2.092 -1.828,-3.383 -0.032,-0.405 0.183,-0.78 0.367,-1.16 0.561,-1.148 0.945,-2.429 1.589,-3.411 0.786,-1.195 2.039,-2.05 2.705,-3.344 0.66,-1.29 0.736,-2.797 1.411,-4.052 0.577,-1.176 0.695,-2.521 0.937,-3.84 0.36,-1.949 0.84,-3.882 1.567,-5.711 0.482,-1.213 0.975,-2.422 1.105,-3.726 0.148,-1.5 0.017,-3.031 0.411,-4.507 0.506,-1.893 1.208,-3.738 1.658,-5.657 0.454,-1.907 1.384,-3.701 2.184,-5.461 1.517,-3.315 3.385,-6.581 6.196,-8.861l0.007 -0.004c1.686,-1.015 3.43,-1.936 5.273,-2.609 1.958,-0.713 4.131,-0.711 6.14,-0.899 0.938,-0.087 1.877,-0.142 2.822,-0.138 2.725,0.028 5.465,0.713 7.605,2.377 1.313,1.02 2.189,2.532 3.533,3.53 1.646,1.224 4.069,0.888 6.252,1.381 3.561,0.82 6.96,2.342 10.592,2.923 0.102,0.016 0.207,0.032 0.309,0.047 0.008,0 0.197,0.029 0.205,0.031l0.107 0c0.091,0 0.181,0 0.273,-0.002 2.304,-0.032 4.582,-0.58 6.679,-1.522 3.352,-1.505 6.248,-3.931 9.155,-6.188 1.699,-1.315 3.439,-2.583 5.363,-3.571 1.984,-1.022 4.05,-1.911 6.223,-2.329 0.68,-0.129 1.367,-0.224 2.058,-0.305 0.043,-0.006 0.043,-0.006 0.088,-0.011 1.9,-0.178 3.832,-0.165 5.734,-0.049 2.306,0.138 4.608,0.745 6.642,1.689 2.507,1.16 4.277,3.626 5.381,6.204 0.463,1.08 0.801,2.209 1.314,3.239 0.334,0.671 0.827,1.272 1.386,1.801 0.476,0.449 1.032,0.775 1.704,0.987 2.191,0.696 4.502,1.034 6.739,1.602 0.883,0.225 1.77,0.436 2.673,0.55 1.111,0.14 2.239,0.162 3.346,0.195 0.503,0.017 1.265,-0.012 1.255,0.321 -0.007,0.233 -0.381,0.326 -0.752,0.436 -1.089,0.32 -2.264,0.296 -3.423,0.212 -1.741,-0.125 -3.434,-0.633 -5.116,-0.995 -1.674,-0.359 -3.362,-0.663 -5,-1.134 -1.182,-0.339 -2.267,-1.004 -2.955,-2.013 -0.292,-0.428 -0.519,-0.898 -0.743,-1.367 -0.268,-0.563 -0.52,-1.135 -0.766,-1.709 -0.804,-1.894 -1.635,-3.839 -2.945,-5.22 -0.938,-0.994 -2.089,-1.773 -3.415,-2.231 -1.773,-0.614 -3.664,-0.921 -5.508,-1.01 -2.195,-0.105 -4.407,-0.192 -6.558,0.165 -2.596,0.433 -5.107,1.393 -7.435,2.593 -1.382,0.713 -2.687,1.557 -3.952,2.452 -0.986,0.712 -1.992,1.473 -3.021,2.235 -1.595,1.198 -3.177,2.373 -4.835,3.346 -2.505,1.47 -5.263,2.613 -8.202,2.819 -2.432,0.172 -4.857,-0.427 -7.158,-1.257 -2.149,-0.782 -4.304,-1.636 -6.575,-1.902 -1.358,-0.16 -2.744,-0.199 -4.025,-0.681 -1.2,-0.453 -2.078,-1.537 -2.966,-2.516 -0.561,-0.616 -1.151,-1.205 -1.841,-1.684 -1.806,-1.255 -3.993,-1.88 -6.22,-2.009 -2.15,-0.125 -4.298,0.153 -6.467,0.319 -1.33,0.107 -2.631,0.357 -3.91,0.873 -1.53,0.618 -3.008,1.359 -4.433,2.192l-0.084 0.049c-2.969,2.349 -4.863,5.865 -6.418,9.296 -0.739,1.613 -1.47,3.201 -1.899,4.975 -0.419,1.711 -1.08,3.352 -1.521,5.049 -0.436,1.674 -0.153,3.462 -0.497,5.123 -0.292,1.403 -0.97,2.7 -1.431,4.055 -0.615,1.808 -0.941,3.695 -1.296,5.583 -0.152,0.799 -0.297,1.607 -0.639,2.335 0,0 -0.183,0.357 -0.296,0.642 -0.481,1.217 -0.619,2.576 -1.309,3.679 -0.784,1.255 -2.122,2.108 -2.783,3.439 -0.339,0.679 -0.563,1.418 -0.907,2.091 -0.058,0.114 -0.119,0.227 -0.179,0.339 0.305,-0.233 0.604,-0.48 0.798,-0.813 0.061,-0.105 0.209,-0.547 0.487,-0.532zm138.555 -38.751l0 -4.663 -1.741 0 0 -0.62 4.184 0 0 0.62 -1.742 0 0 4.663 -0.701 0zm3.151 0l0 -5.283 1.047 0 1.247 3.741c0.118,0.347 0.198,0.605 0.257,0.781 0.06,-0.191 0.156,-0.479 0.281,-0.847l1.269 -3.675 0.936 0 0 5.283 -0.671 0 0 -4.42 -1.541 4.42 -0.627 0 -1.527 -4.5 0 4.5 -0.671 0zm-96.316 99.321c-2.059,0 -3.96,-0.332 -5.703,-0.997 -1.744,-0.665 -3.256,-1.598 -4.537,-2.804 -1.279,-1.203 -2.282,-2.64 -3.011,-4.311 -0.727,-1.666 -1.09,-3.505 -1.09,-5.513l0 -0.075c0,-1.907 0.356,-3.697 1.073,-5.365 0.715,-1.668 1.699,-3.123 2.954,-4.366 1.255,-1.241 2.754,-2.214 4.498,-2.917 1.745,-0.702 3.633,-1.054 5.665,-1.054 2.334,0 4.349,0.338 6.042,1.016 1.694,0.678 3.242,1.62 4.648,2.825 0,0 -1.298,1.56 -2.466,2.963 -0.955,1.148 -2.583,1.469 -3.902,0.77 -0.274,-0.161 -0.557,-0.301 -0.841,-0.422 -0.99,-0.427 -2.137,-0.641 -3.443,-0.641 -0.953,0 -1.838,0.188 -2.655,0.565 -0.814,0.376 -1.523,0.892 -2.126,1.544 -0.601,0.652 -1.079,1.417 -1.43,2.295 -0.351,0.88 -0.527,1.82 -0.527,2.825l0 0.074c0,1.054 0.176,2.033 0.527,2.936 0.351,0.903 0.847,1.674 1.486,2.316 0.641,0.639 1.394,1.141 2.26,1.506 0.865,0.363 1.824,0.544 2.879,0.544 1.707,0 3.112,-0.364 4.216,-1.091l0 -3.198 -2.281 0c-0.773,0 -1.515,-0.308 -2.06,-0.854 -0.548,-0.548 -0.853,-1.288 -0.853,-2.061l0 -2.433 12.118 0 0 11.859c-1.403,1.155 -3.06,2.119 -4.967,2.898 -1.907,0.778 -4.066,1.166 -6.474,1.166zm88.495 -48.006c0,0 -0.494,0.793 0.341,0.159 1.475,-1.119 2.049,-2.746 2.176,-3.607 0.152,-1.013 -0.394,-1.347 -0.659,-1.046 -0.265,0.304 -0.225,1.039 -0.5,2.055 -0.272,1.018 -0.767,1.681 -1.358,2.439zm-11.519 -11.728c0.208,-0.27 0.849,-0.657 0.643,-0.118 -0.206,0.538 -0.312,1.274 0.027,1.963 0.386,0.789 1.664,3.19 1.978,4.336 0.447,1.641 0.182,3.418 -0.022,3.805 -0.205,0.388 -0.045,-0.806 -0.097,-1.502 -0.115,-1.554 -0.824,-3.105 -1.391,-4.136 -0.571,-1.033 -1.618,-2.503 -1.436,-3.606 0.064,-0.388 0.166,-0.569 0.298,-0.742zm9.092 -3.795l-0.002 -0.012c0,0 0.002,0.004 0.002,0.012 0.416,2.723 -0.97,7.042 -1.219,7.794 -0.248,0.754 -1.495,3.416 -0.332,0.24 1.131,-3.092 1.558,-7.76 1.551,-8.034zm-2.156 -1.469c0,0 1.688,2.512 -0.192,9.383 0.159,0.755 2.511,-7.295 0.192,-9.383zm0.957 -10.225c0,0 -1.399,0.11 -0.559,0.66 0.843,0.55 3.426,1.984 4.305,5.739 0.388,1.661 0.595,3.4 0.676,4.265 0.061,0.636 0.152,-0.199 0.212,-0.416 0.06,-0.22 1.114,-4.672 -1.651,-8.387 -0.564,-0.758 -1.603,-1.719 -2.983,-1.861zm-34.681 -2.399c0.338,-0.254 2.956,-3.077 8.109,-2.748 0.435,0.028 0.153,-0.249 -0.786,-0.332 -1.361,-0.117 -5.482,0.056 -8.53,2.103 -1.649,1.109 -2.107,2.162 -2.085,2.772 0.023,0.611 0.571,0.643 1.022,0.309 0.453,-0.332 1.448,-1.489 2.27,-2.104zm23.7 -1.705c0,0 0.834,0.734 0.265,-0.153 -0.57,-0.886 -2.079,-2.782 -4.244,-4.148 -0.942,-0.593 -2.017,-0.615 -2.065,0.044 -0.039,0.519 0.478,0.434 0.902,0.533 0.807,0.19 1.548,0.723 2.294,1.33 0.745,0.607 2.371,1.968 2.848,2.394zm-20.526 -7.236c-0.487,0.207 -0.738,0.839 0.248,0.849 1.399,0.013 1.815,-0.427 4.156,0.009 0.833,0.154 1.738,0.392 2.104,0.441 0.67,0.09 0.59,-0.049 0.035,-0.321 -0.863,-0.423 -4.484,-1.861 -6.543,-0.978zm-27.878 86.525c-1.632,0 -3.131,-0.275 -4.499,-0.828 -1.368,-0.551 -2.554,-1.31 -3.558,-2.276 -1.004,-0.966 -1.78,-2.09 -2.334,-3.369 -0.552,-1.279 -0.827,-2.647 -0.827,-4.103l0 -0.076c0,-1.454 0.283,-2.829 0.846,-4.121 0.566,-1.292 1.35,-2.421 2.352,-3.388 1.005,-0.965 2.197,-1.731 3.578,-2.296 1.38,-0.565 2.886,-0.847 4.517,-0.847 1.631,0 3.131,0.282 4.497,0.847 1.37,0.565 2.554,1.324 3.557,2.277 1.005,0.955 1.783,2.071 2.335,3.349 0.552,1.281 0.827,2.649 0.827,4.104l0 0.075c0,1.456 -0.281,2.831 -0.847,4.124 -0.563,1.291 -1.349,2.421 -2.351,3.386 -1.005,0.966 -2.197,1.732 -3.576,2.296 -1.381,0.566 -2.886,0.846 -4.517,0.846zm47.201 -0.488l-7.151 0 0 -2.711c-0.703,0.854 -1.531,1.594 -2.485,2.221 -0.953,0.628 -2.195,0.943 -3.725,0.943 -1.206,0 -2.355,-0.245 -3.446,-0.735 -1.092,-0.489 -2.044,-1.186 -2.861,-2.09 -0.815,-0.903 -1.467,-2.006 -1.956,-3.312 -0.49,-1.305 -0.735,-2.772 -0.735,-4.404l0 -0.076c0,-1.655 0.239,-3.142 0.715,-4.458 0.477,-1.319 1.131,-2.436 1.957,-3.352 0.829,-0.916 1.784,-1.619 2.861,-2.108 1.081,-0.49 2.221,-0.734 3.427,-0.734 1.53,0 2.785,0.296 3.763,0.885 0.979,0.589 1.807,1.273 2.485,2.051l0 -9.599 3.071 0c2.253,0 4.08,1.828 4.08,4.081l0 23.398zm-25.595 0l-7.151 0 0 -27.479 3.395 0c2.074,0 3.756,1.683 3.756,3.757l0 23.722zm14.416 -5.532c0.577,0 1.116,-0.115 1.619,-0.341 0.501,-0.225 0.941,-0.544 1.318,-0.96 0.375,-0.413 0.67,-0.903 0.883,-1.467 0.214,-0.564 0.32,-1.185 0.32,-1.864l0 -0.075c0,-0.676 -0.106,-1.292 -0.32,-1.844 -0.213,-0.551 -0.508,-1.035 -0.883,-1.449 -0.377,-0.415 -0.817,-0.733 -1.318,-0.96 -0.503,-0.225 -1.042,-0.338 -1.619,-0.338 -0.578,0 -1.117,0.113 -1.619,0.338 -0.503,0.227 -0.941,0.539 -1.317,0.943 -0.377,0.398 -0.677,0.883 -0.903,1.446 -0.227,0.566 -0.339,1.188 -0.339,1.864l0 0.075c0,0.679 0.112,1.3 0.339,1.864 0.226,0.564 0.526,1.054 0.903,1.467 0.376,0.416 0.814,0.735 1.317,0.96 0.502,0.226 1.041,0.341 1.619,0.341zm-35.947 -0.038c0.652,0 1.241,-0.12 1.77,-0.358 0.526,-0.238 0.971,-0.565 1.336,-0.979 0.363,-0.415 0.645,-0.898 0.846,-1.45 0.201,-0.552 0.301,-1.128 0.301,-1.731l0 -0.076c0,-0.626 -0.106,-1.216 -0.32,-1.768 -0.213,-0.554 -0.515,-1.036 -0.903,-1.449 -0.389,-0.415 -0.847,-0.747 -1.373,-0.998 -0.528,-0.252 -1.106,-0.377 -1.732,-0.377 -0.652,0 -1.244,0.12 -1.769,0.359 -0.528,0.237 -0.973,0.563 -1.336,0.978 -0.366,0.413 -0.646,0.897 -0.849,1.449 -0.199,0.551 -0.3,1.128 -0.3,1.731l0 0.075c0,0.627 0.107,1.219 0.32,1.77 0.214,0.553 0.514,1.036 0.902,1.45 0.389,0.414 0.847,0.746 1.375,0.996 0.527,0.251 1.103,0.378 1.732,0.378zm42.246 -39.224c0.004,0.038 0.008,0.074 0.011,0.111 0.087,1.151 -0.125,2.372 -0.672,3.275 -1.001,1.651 -2.668,2.817 -4.385,3.789 -1.821,1.03 -3.834,1.668 -5.858,2.257 0,0 -0.524,2.159 1.129,2.592 2.203,0.581 4.584,-0.058 6.58,-0.687 1.611,-0.507 3.169,-1.168 4.667,-1.947 0.678,-0.409 1.118,-0.746 1.592,-1.068 1.442,-0.98 3.339,-2.115 5.707,-5.659 3.833,-5.737 1.446,-11.22 0.216,-12.814 -1.681,-2.18 -1.686,-5.151 0.472,-5.186 2.433,-0.04 3.755,3.074 3.755,3.074 0.543,-1.039 0.59,-2.761 0.575,-3.314 -0.206,-7.478 -6.278,-8.875 -8.074,-9.399 -1.794,-0.524 -3.562,-0.738 -2.973,-2.7 0.564,-1.868 4.736,-0.705 4.736,-0.705 -2.61,-3.763 -7.305,-4.952 -12.154,-5.303 -4.627,-0.331 -9.946,3.23 -11.452,4.633 -1.504,1.405 -3.514,2.286 -5.423,1.306 -1.907,-0.98 -0.721,-3.315 -0.721,-3.315 1.443,-2.595 4.506,-4.419 9.112,-4.906 8.571,-0.907 14.975,1.322 14.975,1.322 -0.288,-0.503 -0.907,-1.094 -1.571,-1.433 -1.4,-0.713 -2.017,-1.509 -1.394,-2.617 0.285,-0.504 0.746,-0.712 1.305,-0.712l0.023 0c1.401,0.013 3.403,1.312 4.769,2.587 2.791,2.604 5.566,7.159 6.92,10.342l0.001 0.002c2.017,1.376 4.355,4.069 5.243,7.231 0.009,0.008 0.025,0.023 0.025,0.023 0.184,-0.655 0.465,-2.684 -0.556,-4.205 -0.957,-1.427 -2.141,-1.774 -2.74,-3.575 -0.508,-1.527 0.482,-4.496 4.004,-3.523 3.523,0.971 6.017,7.035 5.575,13.01 -0.441,5.974 -3.749,13.319 -3.749,13.319 1.26,-0.54 1.51,-4.366 3.651,-3.361 1.371,0.645 0.561,3.83 -2.052,7.048 -2.61,3.217 -6.334,7.427 -12.454,10.664l-0.021 0.011c-0.272,0.277 -0.857,0.479 -1.372,0.725 -4.453,2.119 -9.238,3.589 -14.162,4.059 -2.298,0.219 -4.758,0.201 -6.667,-1.539 -0.889,-0.81 -1.081,-2.153 -0.966,-3.463 -2.046,0.549 -4.425,0.383 -5.916,-1.08 -0.984,-0.964 -1.151,-2.575 -0.465,-3.917 1.127,-2.202 3.628,-3.604 6.032,-3.661 1.869,-0.043 3.646,1.312 4.145,3.226 0.117,0.446 0.16,0.914 0.136,1.376 0.048,-0.011 0.096,-0.025 0.144,-0.039 1.858,-0.511 3.703,-1.154 5.254,-2.296 0.913,-0.672 1.616,-1.661 1.438,-2.934 -0.043,-0.292 -0.238,-0.564 -0.723,-0.577 -6.399,-0.086 -12.7,-0.056 -19.022,-0.069 0,0 -0.014,-0.294 -0.08,0.565 -0.032,0.422 -0.224,0.812 -0.402,1.202 -1.723,3.789 -3.467,7.575 -5.21,11.363l-0.33 0.715 -2.898 0 -0.424 -0.649c0.375,-0.855 0.75,-1.708 1.125,-2.564 0.292,-0.665 0.584,-1.332 0.877,-1.998 1.21,-2.763 2.434,-5.525 3.608,-8.286 0,0 -0.045,-0.125 -0.189,-0.174 -0.538,-0.183 -1.129,-0.111 -1.715,-0.122 -1.181,-0.019 -2.361,-0.037 -3.541,-0.054 0,0 -0.182,-0.121 -0.15,0.172 0.112,1.139 -0.611,2.242 -1.118,3.369 -1.362,3.028 -2.752,6.039 -4.14,9.054l-0.233 0.501 -0.325 0.705 -3.067 0 -0.422 -0.653c1.837,-4.017 3.698,-8.028 5.464,-12.04 0.177,-0.409 0.363,-0.998 -0.661,-1.126l-2.938 -0.004c-0.001,0.055 -0.004,0.11 -0.004,0.165 -0.099,3.191 -1.93,6.2 -4.242,8.394 -1.841,1.748 -4.111,3.112 -6.725,3.05 -2.502,-0.058 -5.19,-1.016 -6.38,-3.358 -0.915,-1.804 -0.488,-4.138 1.361,-5.38 3.398,-2.279 8.834,-0.609 10.45,2.127 0,0 0.373,-0.372 0.606,-0.677 0.928,-1.217 1.672,-2.909 1.062,-4.15 -0.077,-0.157 -0.103,-0.132 -0.154,-0.146 -0.065,-0.02 -0.163,-0.028 -0.163,-0.028l-11.372 -0.044c-0.611,-0.031 -1.076,-0.702 -0.828,-1.32 0.14,-0.321 0.264,-0.648 0.479,-0.917 0.341,-0.424 0.872,-0.688 1.422,-0.692l15.173 -0.006c-0.024,-0.039 -0.047,-0.082 -0.071,-0.122 -1.708,-3.093 -0.828,-7.678 1.876,-10.239 3.933,-3.722 10.894,-4.529 15.1,-1.124 3.283,2.656 4.341,7.895 1.337,11.463l25.321 0.028c0.549,0.025 0.986,0.605 0.789,1.168 -0.176,0.458 -0.321,0.969 -0.578,1.308 -0.253,0.338 -0.665,0.542 -1.09,0.546l-3.25 0zm-52.291 4.732c-1.038,0.011 -2.309,0.402 -2.133,1.909 0.105,0.908 0.971,1.618 1.815,1.824 1.595,0.389 3.381,0.068 4.549,-1.149 0.131,-0.136 0.267,-0.273 0.205,-0.393 -0.296,-0.6 -0.981,-1.062 -1.613,-1.444 -0.81,-0.486 -1.779,-0.751 -2.823,-0.747zm37.341 -0.25c-1.319,0.017 -2.905,1.298 -2.839,2.396 0.018,0.295 0.697,0.344 1.163,0.36 0.836,0.028 1.684,-0.126 2.429,-0.499 0.215,-0.874 0.349,-1.977 -0.352,-2.203 -0.113,-0.036 -0.23,-0.05 -0.348,-0.054l-0.053 0zm-13.447 -18.205c-2.646,0.014 -5.428,0.565 -7.434,2.672 -1.682,1.764 -2.702,4.575 -1.122,6.816 0.408,0.576 0.994,1.033 1.678,1.207l6.523 -0.004c0.302,-0.007 0.604,-0.01 0.907,-0.002l1.597 0c0.337,-0.069 0.666,-0.166 0.984,-0.291l0.014 -0.007c2.06,-1.042 3.135,-3.459 2.785,-6.038 -0.19,-1.391 -1.046,-2.71 -2.263,-3.384 -1.119,-0.622 -2.362,-0.97 -3.669,-0.969zm24.641 -25.033c0,0 -4.123,-2.709 -6.925,-3.367 -2.803,-0.658 -5.193,-0.3 -4.934,2.075 0.102,0.935 1.627,2.074 4.942,1.876 3.316,-0.196 5.079,-1.166 6.917,-0.584zm-70.897 -15.629c0.029,0.256 0.081,0.516 0.153,0.776 0.284,-0.843 0.384,-1.75 0.552,-2.633 0.204,-1.043 0.937,-1.942 1.07,-2.95 0,0 -0.002,-0.095 0.048,-0.096l0.016 -0.001c0.1,-0.005 0.03,0.234 -0.002,0.417 -0.141,0.822 -0.497,1.595 -0.686,2.413 -0.266,1.153 -0.318,2.367 -0.791,3.466 0.661,1.661 2.096,3.218 3.758,3.612 1.745,0.412 6.453,-0.928 7.511,1.09 0.277,0.894 -2.579,2.315 -3.866,3.247 -1.473,1.069 -3.536,1.876 -5.318,2.321 -0.95,0.237 -1.93,0.294 -2.905,0.2 -0.008,0.097 -0.015,0.193 -0.021,0.289 -0.035,0.562 0.013,1.127 0.275,1.662 1.032,2.097 1.969,4.222 2.768,6.406 0.767,2.092 1.471,4.206 2.429,6.208 0.963,1.996 1.99,3.983 2.529,6.11 0.398,1.564 0.477,3.279 -0.377,4.577 -0.963,1.46 -2.72,2.34 -4.319,2.995 -0.992,0.408 -2.055,0.661 -2.966,1.222 -0.529,0.326 -1.034,0.709 -1.656,0.799 -0.164,0.022 -0.099,-0.052 -0.099,-0.052 0.013,-0.057 0.024,-0.057 0.038,-0.078 0.127,-0.208 0.241,-0.431 0.409,-0.602 0,0 0.443,-0.562 0.456,-1.149 0.005,-0.166 -0.033,-0.403 -0.033,-0.403 -0.328,-1.324 -1.311,-2.442 -2.097,-3.632 -0.029,-0.046 -0.029,-0.046 -0.061,-0.092 -0.912,-1.312 -2.169,-2.374 -3.095,-3.706 -0.505,-0.729 -0.91,-1.557 -0.984,-2.448 -0.1,-1.244 0.426,-2.471 0.835,-3.661 0.3,-0.886 0.455,-1.792 0.314,-2.811 -0.223,-1.62 -0.766,-3.19 -0.84,-4.816 -0.086,-1.865 0.491,-3.768 -0.218,-5.509 -0.127,-0.313 -0.279,-0.612 -0.408,-0.921 -0.659,-1.592 -1.136,-3.289 -1.119,-4.988l0.022 -0.124c-0.194,-0.211 -0.385,-0.428 -0.563,-0.65l-0.014 0.006c-0.44,-0.032 -0.879,-0.12 -1.279,-0.304 -0.646,-0.296 -1.195,-0.772 -1.819,-1.125 0.014,0.657 -0.14,1.315 -0.426,1.909 -0.456,0.948 -1.189,1.733 -1.968,2.436 -0.009,0.009 -0.14,0.18 -0.203,0.109 -0.043,-0.051 0.044,-0.127 0.101,-0.198 0.087,-0.109 0.174,-0.218 0.261,-0.327 0.959,-1.214 1.907,-2.523 2.077,-4.016 -0.191,-0.102 -0.388,-0.199 -0.583,-0.3 -0.631,-0.331 -1.167,-0.801 -1.521,-1.445 -0.002,-0.005 -0.044,-0.047 -0.039,-0.093 0.007,-0.045 0.069,-0.061 0.102,-0.018 0.279,0.515 0.711,0.908 1.308,1.14 0.469,0.179 0.938,0.366 1.364,0.635 0.663,0.421 1.3,0.922 2.057,1.068 0.073,0.014 0.147,0.026 0.222,0.035 -0.202,-0.305 -0.361,-0.613 -0.445,-0.918 -0.148,-0.541 1.307,-1.345 1.826,-2.633 0.24,-0.604 1.344,-1.803 1.926,-2.106 0.298,-0.155 1.184,-0.131 1.536,-0.21 0.209,-0.047 0.357,-0.296 0.557,-0.36 0.354,-0.114 0.4,0.146 0.682,0.104 0.998,-0.155 2.084,0.353 2.784,0.014 0.223,-0.108 0.721,-0.017 0.735,0.109zm-0.995 11.796c-2.605,-0.395 -5.108,-1.825 -6.767,-3.676l-0.148 -0.163c-0.058,1.883 0.592,3.85 1.361,5.535 0.068,0.155 0.068,0.163 0.096,0.234 0.674,1.817 0.025,3.808 0.191,5.671 0.146,1.656 0.754,3.26 0.817,4.92 0.063,1.692 -1.016,3.192 -1.167,4.823 -0.04,0.425 -0.017,0.858 0.082,1.275 0.288,1.214 1.119,2.209 1.91,3.109 0.761,0.87 1.51,1.734 2.164,2.719 0.498,0.747 1.017,1.485 1.397,2.295 0.427,0.692 0.659,1.589 0.388,2.272 -0.05,0.13 -0.151,0.311 -0.151,0.311 0.579,-0.327 1.103,-0.706 1.772,-0.975 1.618,-0.646 3.332,-1.228 4.719,-2.353 0.727,-0.591 1.332,-1.351 1.562,-2.265 0.375,-1.496 -0.113,-3.052 -0.664,-4.433 -0.585,-1.461 -1.35,-2.843 -2.06,-4.244 -1.202,-2.384 -1.987,-4.978 -3.02,-7.494 -0.708,-1.725 -1.473,-3.406 -2.288,-5.105 -0.361,-0.754 -0.253,-1.641 -0.194,-2.456zm-6.376 24.038c0.071,0.026 0.081,0.03 -0.027,0.146 -0.611,0.671 -0.791,1.612 -1.271,2.356 -0.565,0.878 -1.34,1.703 -2.164,2.138 -1.004,0.533 -2.21,0.575 -3.226,1.108 -0.003,0.002 -0.117,-0.049 -0.056,-0.092l0.006 -0.002c1.215,-0.645 2.47,-1.247 3.529,-2.122 1.215,-1.007 2.075,-2.384 3.156,-3.516 0,0 0.006,-0.021 0.053,-0.016zm-5.191 -8.312c0.055,0.02 0.041,0.095 0.04,0.156 -0.007,0.732 0.096,1.463 -0.014,2.185 -0.408,2.691 -2.32,5.012 -3.445,7.343 -0.243,0.502 -0.452,1.018 -0.638,1.543 -0.065,0.127 -0.102,-0.033 -0.102,-0.033 0.561,-1.981 1.389,-3.898 2.317,-5.703 0.867,-1.706 1.434,-3.534 1.777,-5.449 0,0 0.011,-0.049 0.065,-0.042zm10.058 -5.911c-0.279,-1.944 -1.598,-3.576 -2.562,-5.337 -0.083,-0.151 -0.089,-0.157 -0.125,-0.217 -0.317,-0.53 -0.689,-1.053 -0.729,-1.655 -0.01,-0.151 -0.008,-0.303 -0.012,-0.455 -0.006,-0.303 -0.077,-0.61 -0.225,-0.881 -0.331,-0.599 -0.867,-1.064 -1.171,-1.688 0,0 -0.048,-0.042 0,-0.078 0,0 0.028,-0.019 0.049,-0.016 0.068,0.011 -0.007,-0.047 0.095,0.133 0.421,0.727 1.404,1.028 1.603,1.861 0.114,0.476 -0.023,0.983 0.183,1.473 0.227,0.543 0.577,1.031 0.861,1.539 0.881,1.559 2.039,3 2.368,4.723 0.035,0.184 0.059,0.368 0.082,0.554 0.068,0.593 0.134,1.205 0.446,1.705 0.223,0.359 0.529,0.665 0.811,0.989 0.758,0.871 1.437,1.819 2.25,2.594 1.595,1.52 3.687,2.585 4.51,4.758 0.385,1.012 0.483,2.102 0.597,3.177 0,0 0.013,0.031 -0.029,0.054 -0.063,0.034 -0.085,-0.104 -0.097,-0.209 -0.141,-1.189 -0.445,-2.369 -1.064,-3.374 -1.298,-2.103 -3.726,-3.287 -5.2,-5.136 -0.036,-0.049 -0.076,-0.098 -0.115,-0.146 -0.583,-0.721 -1.223,-1.41 -1.803,-2.115 -0.21,-0.259 -0.354,-0.552 -0.459,-0.872 0.106,1.781 -0.092,3.583 -0.402,5.344 0,0 -0.113,0.087 -0.106,-0.018 0.022,-0.126 0.043,-0.251 0.064,-0.376l0.18 -6.331zm9.45 -8.63c0.052,0.029 0.035,0.12 0.037,0.198 0.062,2.376 0.883,4.71 1.996,6.861 0.957,1.854 2.146,3.594 3.565,5.117 0.19,0.203 0.064,0.145 0.064,0.145 -0.08,0.059 -0.071,0.005 -0.071,0.005 -2.242,-1.712 -3.997,-4.027 -5.004,-6.666 -0.678,-1.775 -0.983,-3.726 -0.66,-5.62 0,0 0.013,-0.054 0.073,-0.04zm-3.133 -0.72c0.062,0.026 0.073,0.054 0.11,0.082 1.071,0.889 1.57,2.296 2.001,3.589 0.179,0.53 0.369,1.066 0.699,1.523 0.122,0.167 -0.017,0.145 -0.117,0.056 -0.953,-0.866 -1.346,-2.19 -1.81,-3.411 -0.236,-0.613 -0.507,-1.224 -0.924,-1.736 0,0 -0.064,-0.121 0.041,-0.103zm-29.915 0.929c0.187,0.048 -0.049,0.219 -0.012,0.437 0.042,0.261 0.318,0.38 0.516,0.496 0.419,0.241 0.85,0.529 0.948,0.985 0.074,0.344 0.026,0.698 0.066,1.051 0,0 0,0.047 -0.029,0.071 -0.044,0.038 -0.113,0.038 -0.135,-0.053 -0.038,-0.316 -0.072,-0.652 -0.25,-0.928 -0.411,-0.642 -1.46,-0.895 -1.298,-1.724 0.017,-0.085 0.048,-0.166 0.085,-0.243 0.02,-0.039 0.014,-0.092 0.109,-0.092zm3.412 0.108c0.781,0.128 1.629,0.095 2.268,-0.393 0.572,-0.437 0.854,-1.239 1.576,-1.506 0,0 0.036,-0.011 0.063,-0.001 0.088,0.036 0.081,0.084 -0.141,0.222 -0.688,0.421 -0.828,1.44 -1.572,1.825 -0.674,0.349 -1.496,0.144 -2.265,0.008 0,0 -0.037,0.004 -0.06,-0.048 -0.03,-0.063 0.022,-0.127 0.131,-0.107zm0.088 -5.1c0.468,0.007 0.933,0.083 1.372,0.242 0.917,0.334 1.694,0.935 2.627,1.327 0,0 0.06,0.045 0.044,0.105 -0.464,1.244 -1.344,2.485 -2.52,2.76 -1.074,0.252 -2.237,-0.007 -3.384,-0.041 -0.656,-0.015 -1.327,0.154 -1.845,0.542 0,0 -0.111,0.103 -0.154,-0.11 -0.077,-0.409 -0.079,-0.839 0.128,-1.202 0.266,-0.462 0.742,-0.763 1.037,-1.224 0.415,-0.648 0.583,-1.476 1.213,-1.913 0.438,-0.303 0.923,-0.49 1.482,-0.486zm-0.341 -4.201c1.502,0.011 2.951,0.64 4.248,1.425 0,0 0.085,0.031 0.093,0.093 0.006,0.058 -0.051,0.102 -0.113,0.086 -1.732,-0.699 -3.569,-1.337 -5.343,-0.69 -1.241,0.452 -2.085,1.628 -2.651,2.827 -0.616,1.306 -1.177,2.668 -1.332,4.097 -0.029,0.265 -0.046,0.537 0.032,0.788 0,0 0.01,0.055 -0.025,0.087 -0.123,0.102 -0.227,-0.264 -0.25,-0.595 -0.065,-0.945 0.178,-1.901 0.441,-2.836 0.337,-1.202 0.738,-2.412 1.404,-3.46 0.715,-1.124 2.053,-1.807 3.435,-1.822l0.061 0zm-1.494 8.156c1.198,0.019 2.427,0.449 3.567,-0.073 0.836,-0.383 1.517,-1.102 1.867,-1.958 0,0 -0.365,-0.149 -0.714,-0.352 -0.473,-0.275 -0.916,-0.613 -1.422,-0.801 -0.065,-0.024 -0.131,-0.046 -0.197,-0.067 0.701,0.372 1.111,0.959 0.959,1.794 -0.188,1.016 -1.154,1.689 -2.161,1.505 -1.005,-0.186 -1.668,-1.159 -1.481,-2.175 0.08,-0.437 0.315,-0.806 0.633,-1.059 -0.207,0.095 -0.399,0.223 -0.569,0.386 -0.618,0.597 -0.885,1.492 -1.544,2.106 -0.343,0.318 -0.755,0.631 -0.678,1.125 0,0 0.321,-0.231 0.634,-0.318 0.357,-0.099 0.735,-0.117 1.106,-0.113zm1.309 -4.929c1.122,0.015 2.213,0.522 3.139,1.142 0.081,0.056 0.167,0.211 -0.109,0.165 -1.335,-0.236 -2.598,-1.131 -4.006,-0.48 -0.525,0.242 -0.973,0.685 -1.143,1.247 0,0 0,0.021 -0.031,0.044 -0.063,0.043 -0.139,0.03 -0.126,-0.129 0.107,-1.08 1.11,-1.978 2.221,-1.991 0.028,0 0.028,0 0.055,0.002z"/>
   <path class="fil0" d="M36.38 5.866l2.25 -5.866 0.854 0 2.388 5.866 -0.884 0 -0.678 -1.778 -2.47 0 -0.636 1.778 -0.824 0zm1.688 -2.409l1.999 0 -0.612 -1.626c-0.185,-0.494 -0.324,-0.902 -0.42,-1.225 -0.082,0.383 -0.189,0.758 -0.324,1.13l-0.643 1.721zm9.006 2.409l0 -5.866 0.778 0 0 2.417 3.032 0 0 -2.417 0.778 0 0 5.866 -0.778 0 0 -2.761 -3.032 0 0 2.761 -0.778 0zm6.354 0l0 -5.866 4.235 0 0 0.689 -3.457 0 0 1.802 3.236 0 0 0.688 -3.236 0 0 1.999 3.597 0 0 0.688 -4.375 0zm5.258 0l2.25 -5.866 0.854 0 2.388 5.866 -0.884 0 -0.679 -1.778 -2.469 0 -0.636 1.778 -0.824 0zm1.687 -2.409l1.999 0 -0.611 -1.626c-0.185,-0.494 -0.324,-0.902 -0.421,-1.225 -0.081,0.383 -0.188,0.758 -0.324,1.13l-0.643 1.721zm4.841 2.409l0 -5.866 0.778 0 0 5.178 2.883 0 0 0.688 -3.661 0zm5.926 0l0 -5.177 -1.934 0 0 -0.689 4.645 0 0 0.689 -1.933 0 0 5.177 -0.778 0zm3.999 0l0 -5.866 0.778 0 0 2.417 3.031 0 0 -2.417 0.779 0 0 5.866 -0.779 0 0 -2.761 -3.031 0 0 2.761 -0.778 0zm11.02 0l0 -5.866 0.779 0 0 5.866 -0.779 0zm2.59 0l0 -5.866 0.798 0 3.078 4.605 0 -4.605 0.745 0 0 5.866 -0.797 0 -3.078 -4.604 0 4.604 -0.746 0zm6.509 0l0 -5.866 0.779 0 0 5.866 -0.779 0zm4.089 0l0 -5.177 -1.933 0 0 -0.689 4.645 0 0 0.689 -1.933 0 0 5.177 -0.779 0zm4.098 0l0 -5.866 0.779 0 0 5.866 -0.779 0zm1.955 0l2.25 -5.866 0.854 0 2.388 5.866 -0.884 0 -0.678 -1.778 -2.47 0 -0.636 1.778 -0.824 0zm1.688 -2.409l1.999 0 -0.612 -1.626c-0.184,-0.494 -0.324,-0.902 -0.42,-1.225 -0.081,0.383 -0.189,0.758 -0.324,1.13l-0.643 1.721zm5.756 2.409l0 -5.177 -1.933 0 0 -0.689 4.645 0 0 0.689 -1.933 0 0 5.177 -0.779 0zm4.098 0l0 -5.866 0.778 0 0 5.866 -0.778 0zm4.27 0l-2.267 -5.866 0.841 0 1.523 4.263c0.122,0.342 0.226,0.661 0.308,0.96 0.09,-0.321 0.195,-0.64 0.315,-0.96l1.582 -4.263 0.792 0 -2.287 5.866 -0.807 0zm4.262 0l0 -5.866 4.236 0 0 0.689 -3.458 0 0 1.802 3.237 0 0 0.688 -3.237 0 0 1.999 3.597 0 0 0.688 -4.375 0zm10.421 0l0 -5.866 2.201 0c0.448,0 0.807,0.059 1.079,0.177 0.27,0.12 0.481,0.302 0.635,0.55 0.154,0.245 0.23,0.504 0.23,0.773 0,0.251 -0.068,0.487 -0.203,0.708 -0.136,0.221 -0.34,0.401 -0.615,0.537 0.356,0.104 0.629,0.281 0.818,0.532 0.192,0.25 0.288,0.547 0.288,0.888 0,0.276 -0.059,0.531 -0.176,0.767 -0.116,0.236 -0.259,0.418 -0.43,0.547 -0.17,0.126 -0.385,0.223 -0.642,0.289 -0.257,0.065 -0.573,0.098 -0.947,0.098l-2.238 0zm0.778 -3.4l1.269 0c0.344,0 0.591,-0.023 0.74,-0.068 0.198,-0.059 0.347,-0.157 0.446,-0.294 0.1,-0.136 0.151,-0.307 0.151,-0.513 0,-0.195 -0.047,-0.368 -0.141,-0.515 -0.093,-0.149 -0.226,-0.251 -0.4,-0.306 -0.173,-0.054 -0.471,-0.081 -0.892,-0.081l-1.173 0 0 1.777zm0 2.712l1.461 0c0.252,0 0.428,-0.01 0.53,-0.029 0.178,-0.031 0.328,-0.085 0.448,-0.16 0.12,-0.075 0.218,-0.184 0.296,-0.327 0.078,-0.143 0.116,-0.309 0.116,-0.496 0,-0.22 -0.056,-0.41 -0.169,-0.572 -0.112,-0.163 -0.267,-0.276 -0.467,-0.341 -0.198,-0.065 -0.485,-0.099 -0.857,-0.099l-1.358 0 0 2.024zm6.826 0.688l0 -2.485 -2.262 -3.381 0.935 0 1.159 1.775c0.216,0.329 0.416,0.659 0.6,0.987 0.178,-0.307 0.395,-0.651 0.648,-1.033l1.136 -1.729 0.905 0 -2.343 3.381 0 2.485 -0.778 0z"/>
  </g>
 </g>
</svg>
